<svg width="207" height="153" viewBox="0 0 207 153" fill="none" xmlns="http://www.w3.org/2000/svg">
<g filter="url(#filter0_d_2236_480)">
<rect x="12.5476" width="182" height="129" rx="23.9474" fill="white"/>
</g>
<path fill-rule="evenodd" clip-rule="evenodd" d="M19.7375 23.0171C18.0769 23.0171 16.7238 24.3694 16.7238 26.0319C16.7238 27.6939 18.0766 29.0465 19.7375 29.0465C21.4012 29.0465 22.7537 27.6942 22.7537 26.0319C22.7537 24.3691 21.4012 23.0171 19.7375 23.0171ZM19.7375 31.1972C16.8892 31.1972 14.5728 28.8802 14.5728 26.0319C14.573 23.1834 16.8892 20.8661 19.7375 20.8661C22.586 20.8661 24.9048 23.1834 24.9048 26.0319C24.905 28.8802 22.5857 31.1975 19.7375 31.1972Z" fill="#CBE5FE"/>
<path fill-rule="evenodd" clip-rule="evenodd" d="M19.7375 46.1461C18.0769 46.1461 16.7238 47.4986 16.7238 49.1609C16.7238 50.8226 18.0766 52.1755 19.7375 52.1755C21.4012 52.1755 22.7537 50.8232 22.7537 49.1609C22.7537 47.4984 21.4012 46.1461 19.7375 46.1461ZM19.7375 54.3265C16.8892 54.3265 14.5728 52.0092 14.5728 49.1609C14.573 46.3124 16.8892 43.9951 19.7375 43.9951C22.586 43.9951 24.9048 46.3124 24.9048 49.1609C24.905 52.0092 22.5857 54.3265 19.7375 54.3265Z" fill="#CBE5FE"/>
<path fill-rule="evenodd" clip-rule="evenodd" d="M11.3633 39.3686C11.212 39.3686 11.0579 39.3366 10.9122 39.269C7.92705 37.8862 5.99976 34.8674 5.99976 31.5777C6.00004 26.9037 9.80061 23.1008 14.4749 23.1008C17.0796 23.1005 19.4993 24.2707 21.1155 26.3103C21.4855 26.7758 21.4065 27.4521 20.9418 27.8209C20.4771 28.19 19.7991 28.112 19.4323 27.6467C18.2251 26.1247 16.4186 25.2519 14.4749 25.2519C10.988 25.2516 8.15078 28.0896 8.15078 31.5777C8.15107 34.0325 9.58763 36.2856 11.817 37.3171C12.355 37.5666 12.59 38.2061 12.3408 38.7449C12.159 39.1372 11.7695 39.3686 11.3633 39.3686Z" fill="#CBE5FE"/>
<path fill-rule="evenodd" clip-rule="evenodd" d="M11.3633 60.5983C11.212 60.5983 11.0579 60.5663 10.9122 60.4987C7.92705 59.1159 5.99976 56.0968 5.99976 52.8074C6.00004 48.1334 9.80061 44.3308 14.4749 44.3308C17.0796 44.3305 19.4993 45.5004 21.118 47.54C21.4855 48.005 21.4065 48.6818 20.9418 49.0512C20.4771 49.4195 19.802 49.342 19.4323 48.8767C18.2251 47.3547 16.4186 46.4816 14.4749 46.4816C10.988 46.4816 8.15078 49.3193 8.15078 52.8074C8.15107 55.2616 9.58763 57.5153 11.817 58.5468C12.355 58.7966 12.59 59.4358 12.3408 59.9749C12.159 60.3672 11.7695 60.5986 11.3633 60.5983Z" fill="#CBE5FE"/>
<path fill-rule="evenodd" clip-rule="evenodd" d="M19.7375 67.0171C18.0769 67.0171 16.7238 68.3694 16.7238 70.0319C16.7238 71.6939 18.0766 73.0465 19.7375 73.0465C21.4012 73.0465 22.7537 71.6942 22.7537 70.0319C22.7537 68.3691 21.4012 67.0171 19.7375 67.0171ZM19.7375 75.1972C16.8892 75.1972 14.5728 72.8802 14.5728 70.0319C14.573 67.1834 16.8892 64.8661 19.7375 64.8661C22.586 64.8661 24.9048 67.1834 24.9048 70.0319C24.905 72.8802 22.5857 75.1975 19.7375 75.1972Z" fill="#CBE5FE"/>
<path fill-rule="evenodd" clip-rule="evenodd" d="M19.7375 90.1461C18.0769 90.1461 16.7238 91.4986 16.7238 93.1609C16.7238 94.8226 18.0766 96.1755 19.7375 96.1755C21.4012 96.1755 22.7537 94.8232 22.7537 93.1609C22.7537 91.4984 21.4012 90.1461 19.7375 90.1461ZM19.7375 98.3265C16.8892 98.3265 14.5728 96.0092 14.5728 93.1609C14.573 90.3124 16.8892 87.9951 19.7375 87.9951C22.586 87.9951 24.9048 90.3124 24.9048 93.1609C24.905 96.0092 22.5857 98.3265 19.7375 98.3265Z" fill="#CBE5FE"/>
<path fill-rule="evenodd" clip-rule="evenodd" d="M11.3633 83.3686C11.212 83.3686 11.0579 83.3366 10.9122 83.269C7.92705 81.8862 5.99976 78.8674 5.99976 75.5777C6.00004 70.9037 9.80061 67.1008 14.4749 67.1008C17.0796 67.1005 19.4993 68.2707 21.1155 70.3103C21.4855 70.7758 21.4065 71.4521 20.9418 71.8209C20.4771 72.19 19.7991 72.112 19.4323 71.6467C18.2251 70.1247 16.4186 69.2519 14.4749 69.2519C10.988 69.2516 8.15078 72.0896 8.15078 75.5777C8.15107 78.0325 9.58763 80.2856 11.817 81.3171C12.355 81.5666 12.59 82.2061 12.3408 82.7449C12.159 83.1372 11.7695 83.3686 11.3633 83.3686Z" fill="#CBE5FE"/>
<path fill-rule="evenodd" clip-rule="evenodd" d="M11.3633 104.598C11.212 104.598 11.0579 104.566 10.9122 104.499C7.92705 103.116 5.99976 100.097 5.99976 96.8074C6.00004 92.1334 9.80061 88.3308 14.4749 88.3308C17.0796 88.3305 19.4993 89.5004 21.118 91.54C21.4855 92.005 21.4065 92.6818 20.9418 93.0512C20.4771 93.4195 19.802 93.342 19.4323 92.8767C18.2251 91.3547 16.4186 90.4816 14.4749 90.4816C10.988 90.4816 8.15078 93.3193 8.15078 96.8074C8.15107 99.2616 9.58763 101.515 11.817 102.547C12.355 102.797 12.59 103.436 12.3408 103.975C12.159 104.367 11.7695 104.599 11.3633 104.598Z" fill="#CBE5FE"/>
<defs>
<filter id="filter0_d_2236_480" x="0.547607" y="0" width="206" height="153" filterUnits="userSpaceOnUse" color-interpolation-filters="sRGB">
<feFlood flood-opacity="0" result="BackgroundImageFix"/>
<feColorMatrix in="SourceAlpha" type="matrix" values="0 0 0 0 0 0 0 0 0 0 0 0 0 0 0 0 0 0 127 0" result="hardAlpha"/>
<feOffset dy="12"/>
<feGaussianBlur stdDeviation="6"/>
<feComposite in2="hardAlpha" operator="out"/>
<feColorMatrix type="matrix" values="0 0 0 0 0.0547778 0 0 0 0 0.468205 0 0 0 0 0.911889 0 0 0 0.2 0"/>
<feBlend mode="normal" in2="BackgroundImageFix" result="effect1_dropShadow_2236_480"/>
<feBlend mode="normal" in="SourceGraphic" in2="effect1_dropShadow_2236_480" result="shape"/>
</filter>
</defs>
</svg>
