<svg width="17" height="18" viewBox="0 0 17 18" fill="none" xmlns="http://www.w3.org/2000/svg">
<path fill-rule="evenodd" clip-rule="evenodd" d="M11.7003 1.70001H6.20029C3.77024 1.70001 1.80029 3.66996 1.80029 6.10001V12.7C1.80029 15.1301 3.77024 17.1 6.20029 17.1H11.7003C14.1303 17.1 16.1003 15.1301 16.1003 12.7V6.10001C16.1003 3.66996 14.1303 1.70001 11.7003 1.70001Z" stroke="#FFFFFF" stroke-width="1.65" stroke-linecap="round" stroke-linejoin="round"/>
<path d="M12.2499 6.92504C12.7055 6.92504 13.0749 6.55567 13.0749 6.10004C13.0749 5.6444 12.7055 5.27504 12.2499 5.27504V6.92504ZM5.6499 5.27504C5.19427 5.27504 4.8249 5.6444 4.8249 6.10004C4.8249 6.55567 5.19427 6.92504 5.6499 6.92504V5.27504ZM12.2499 10.225C12.7055 10.225 13.0749 9.85567 13.0749 9.40004C13.0749 8.9444 12.7055 8.57504 12.2499 8.57504V10.225ZM5.6499 8.57504C5.19427 8.57504 4.8249 8.9444 4.8249 9.40004C4.8249 9.85567 5.19427 10.225 5.6499 10.225V8.57504ZM8.9499 13.525C9.40554 13.525 9.7749 13.1557 9.7749 12.7C9.7749 12.2444 9.40554 11.875 8.9499 11.875V13.525ZM5.6499 11.875C5.19427 11.875 4.8249 12.2444 4.8249 12.7C4.8249 13.1557 5.19427 13.525 5.6499 13.525V11.875ZM12.2499 5.27504H5.6499V6.92504H12.2499V5.27504ZM12.2499 8.57504H5.6499V10.225H12.2499V8.57504ZM8.9499 11.875H5.6499V13.525H8.9499V11.875Z" fill="#FFFFFF"/>
</svg>
