<svg width="18" height="18" viewBox="0 0 18 18" fill="none" xmlns="http://www.w3.org/2000/svg">
<path fill-rule="evenodd" clip-rule="evenodd" d="M9.19998 4.26625C9.19998 5.68358 8.05101 6.83255 6.63368 6.83255C5.21635 6.83255 4.06738 5.68358 4.06738 4.26625C4.06738 2.84892 5.21635 1.69995 6.63368 1.69995C8.05101 1.69995 9.19998 2.84892 9.19998 4.26625Z" stroke="#1B1F36" stroke-width="1.65" stroke-linecap="round" stroke-linejoin="round"/>
<path fill-rule="evenodd" clip-rule="evenodd" d="M11.7663 13.5062C11.7663 15.4862 9.4684 17.0999 6.6326 17.0999C3.7968 17.0999 1.5 15.4906 1.5 13.5062C1.5 11.5218 3.7979 9.91364 6.6337 9.91364C9.4695 9.91364 11.7663 11.5218 11.7663 13.5062Z" stroke="#1B1F36" stroke-width="1.65" stroke-linecap="round" stroke-linejoin="round"/>
<path fill-rule="evenodd" clip-rule="evenodd" d="M14.6329 6.66207C14.6329 7.51259 13.9434 8.20207 13.0929 8.20207C12.2423 8.20207 11.5529 7.51259 11.5529 6.66207C11.5529 5.81155 12.2423 5.12207 13.0929 5.12207C13.5013 5.12207 13.893 5.28432 14.1818 5.57313C14.4706 5.86193 14.6329 6.25364 14.6329 6.66207Z" stroke="#1B1F36" stroke-width="1.65" stroke-linecap="round" stroke-linejoin="round"/>
<path d="M13.82 16.0736C15.3751 16.2013 16.7456 15.0589 16.9 13.5062C16.745 11.954 15.3748 10.8122 13.82 10.9399" stroke="#1B1F36" stroke-width="1.65" stroke-linecap="round" stroke-linejoin="round"/>
</svg>
