<svg width="17" height="18" viewBox="0 0 17 18" fill="none" xmlns="http://www.w3.org/2000/svg">
<path fill-rule="evenodd" clip-rule="evenodd" d="M11.7 1.70001H6.20005C3.77 1.70001 1.80005 3.66996 1.80005 6.10001V12.7C1.80005 15.1301 3.77 17.1 6.20005 17.1H11.7C14.1301 17.1 16.1 15.1301 16.1 12.7V6.10001C16.1 3.66996 14.1301 1.70001 11.7 1.70001Z" stroke="currentColor" stroke-width="1.65" stroke-linecap="round" stroke-linejoin="round"/>
<path d="M12.2498 6.92504C12.7054 6.92504 13.0748 6.55567 13.0748 6.10004C13.0748 5.6444 12.7054 5.27504 12.2498 5.27504V6.92504ZM5.64978 5.27504C5.19415 5.27504 4.82478 5.6444 4.82478 6.10004C4.82478 6.55567 5.19415 6.92504 5.64978 6.92504V5.27504ZM12.2498 10.225C12.7054 10.225 13.0748 9.85567 13.0748 9.40004C13.0748 8.9444 12.7054 8.57504 12.2498 8.57504V10.225ZM5.64978 8.57504C5.19415 8.57504 4.82478 8.9444 4.82478 9.40004C4.82478 9.85567 5.19415 10.225 5.64978 10.225V8.57504ZM8.94978 13.525C9.40542 13.525 9.77478 13.1557 9.77478 12.7C9.77478 12.2444 9.40542 11.875 8.94978 11.875V13.525ZM5.64978 11.875C5.19415 11.875 4.82478 12.2444 4.82478 12.7C4.82478 13.1557 5.19415 13.525 5.64978 13.525V11.875ZM12.2498 5.27504H5.64978V6.92504H12.2498V5.27504ZM12.2498 8.57504H5.64978V10.225H12.2498V8.57504ZM8.94978 11.875H5.64978V13.525H8.94978V11.875Z" fill="currentColor"/>
</svg>
