<svg width="188" height="74" viewBox="0 0 188 74" fill="none" xmlns="http://www.w3.org/2000/svg">
<g clip-path="url(#clip0_1956_97)">
<rect width="188" height="74" rx="10.8989" fill="#FF5768"/>
<path d="M25.7423 23.0228L23.4126 23.7368C23.2811 23.004 22.6798 21.8579 20.9889 21.8579C19.7301 21.8579 18.9034 22.6658 18.9034 23.5489C18.9034 24.2816 19.3731 24.8641 20.3501 25.052L22.2101 25.4089C24.6338 25.8786 25.9302 27.4569 25.9302 29.3357C25.9302 31.3836 24.2205 33.4504 21.1204 33.4504C17.5882 33.4504 16.0287 31.177 15.8221 29.2793L18.227 28.6405C18.3397 29.9557 19.2603 31.1394 21.1392 31.1394C22.5295 31.1394 23.2998 30.4442 23.2998 29.5048C23.2998 28.7345 22.7174 28.1333 21.684 27.9266L19.824 27.5508C17.7009 27.1187 16.3294 25.7471 16.3294 23.7368C16.3294 21.3694 18.4524 19.5658 20.9701 19.5658C24.2017 19.5658 25.4417 21.5197 25.7423 23.0228ZM32.0103 25.9538C30.7327 25.9538 29.6618 26.8744 29.6618 28.5466C29.6618 30.2188 30.7515 31.1582 32.0291 31.1582C33.3067 31.1582 33.9455 30.3127 34.1522 29.5987L36.3504 30.3315C35.9371 31.8721 34.4904 33.4504 32.0291 33.4504C29.3048 33.4504 27.1629 31.3836 27.1629 28.5466C27.1629 25.6908 29.2672 23.6428 31.9539 23.6428C34.4716 23.6428 35.8995 25.2023 36.294 26.7617L34.0582 27.5132C33.8328 26.7429 33.2503 25.9538 32.0103 25.9538ZM40.6869 33.1685H38.188V23.9247H40.6869V33.1685ZM37.8874 20.8997C37.8874 20.0355 38.5826 19.3403 39.428 19.3403C40.2923 19.3403 40.9687 20.0355 40.9687 20.8997C40.9687 21.7264 40.2923 22.4216 39.428 22.4216C38.5826 22.4216 37.8874 21.7264 37.8874 20.8997ZM45.1846 27.4944H49.3181C49.2805 26.5738 48.6792 25.672 47.2513 25.672C45.9549 25.672 45.241 26.649 45.1846 27.4944ZM49.5623 29.8994L51.6478 30.5194C51.1781 32.1164 49.7126 33.4504 47.4392 33.4504C44.9028 33.4504 42.667 31.6279 42.667 28.509C42.667 25.5592 44.8464 23.6428 47.2138 23.6428C50.0696 23.6428 51.7793 25.4653 51.7793 28.4339C51.7793 28.7908 51.7418 29.1666 51.7418 29.2042H45.1282C45.1846 30.4254 46.218 31.3085 47.458 31.3085C48.6229 31.3085 49.2617 30.726 49.5623 29.8994ZM56.246 27.8514V33.1685H53.7471V23.9247H56.1708V25.0707C56.7345 24.1125 57.843 23.6804 58.8388 23.6804C61.1309 23.6804 62.1831 25.315 62.1831 27.3441V33.1685H59.6842V27.7763C59.6842 26.7429 59.1769 25.935 57.9745 25.935C56.8848 25.935 56.246 26.7805 56.246 27.8514ZM68.8715 25.9538C67.5938 25.9538 66.5229 26.8744 66.5229 28.5466C66.5229 30.2188 67.6126 31.1582 68.8902 31.1582C70.1678 31.1582 70.8067 30.3127 71.0133 29.5987L73.2116 30.3315C72.7982 31.8721 71.3515 33.4504 68.8902 33.4504C66.1659 33.4504 64.0241 31.3836 64.0241 28.5466C64.0241 25.6908 66.1284 23.6428 68.8151 23.6428C71.3327 23.6428 72.7606 25.2023 73.1552 26.7617L70.9194 27.5132C70.6939 26.7429 70.1115 25.9538 68.8715 25.9538ZM76.7799 27.4944H80.9133C80.8757 26.5738 80.2745 25.672 78.8466 25.672C77.5502 25.672 76.8362 26.649 76.7799 27.4944ZM81.1576 29.8994L83.2431 30.5194C82.7734 32.1164 81.3079 33.4504 79.0345 33.4504C76.4981 33.4504 74.2622 31.6279 74.2622 28.509C74.2622 25.5592 76.4417 23.6428 78.809 23.6428C81.6649 23.6428 83.3746 25.4653 83.3746 28.4339C83.3746 28.7908 83.337 29.1666 83.337 29.2042H76.7235C76.7799 30.4254 77.8132 31.3085 79.0533 31.3085C80.2182 31.3085 80.857 30.726 81.1576 29.8994Z" fill="white"/>
<path d="M22.2836 55.643L19.7933 51.1851H18.1638V55.643H16.6419V44.7441H20.7463C22.8062 44.7441 24.0821 46.1891 24.0821 47.9876C24.0821 49.5556 23.0829 50.77 21.4381 51.0775L24.036 55.643H22.2836ZM18.1638 49.8323H20.4696C21.6994 49.8323 22.5295 49.1098 22.5295 47.9876C22.5295 46.8347 21.6994 46.0968 20.4696 46.0968H18.1638V49.8323ZM25.4696 53.66C25.4696 52.338 26.438 51.6001 27.7139 51.4157L29.7123 51.1236C30.1581 51.0621 30.2811 50.8315 30.2811 50.5702C30.2811 49.8477 29.8046 49.2482 28.6824 49.2482C27.6678 49.2482 27.0991 49.8784 27.0068 50.7393L25.6233 50.4165C25.777 49.0022 27.0529 48.0184 28.6517 48.0184C30.8653 48.0184 31.7261 49.2789 31.7261 50.7239V54.4286C31.7261 55.0743 31.7876 55.4586 31.8183 55.643H30.4041C30.3734 55.4586 30.3272 55.1819 30.3272 54.6438C30.0044 55.1665 29.2665 55.8736 27.9445 55.8736C26.438 55.8736 25.4696 54.8283 25.4696 53.66ZM28.1444 54.6592C29.328 54.6592 30.2811 54.0904 30.2811 52.4763V52.1382L28.0214 52.4763C27.4065 52.5686 26.9453 52.9221 26.9453 53.5831C26.9453 54.1366 27.4065 54.6592 28.1444 54.6592ZM33.9772 56.4424V48.249H35.4222V56.5039C35.4222 57.8413 34.6536 58.7944 33.3777 58.7944C32.8243 58.7944 32.6091 58.7175 32.5168 58.6868V57.4723C32.5937 57.4877 32.7628 57.5185 32.978 57.5185C33.7312 57.5185 33.9772 57.1188 33.9772 56.4424ZM33.6544 45.4205C33.6544 44.8363 34.1155 44.3751 34.6843 44.3751C35.2685 44.3751 35.7296 44.8363 35.7296 45.4205C35.7296 45.9892 35.2685 46.4504 34.6843 46.4504C34.1155 46.4504 33.6544 45.9892 33.6544 45.4205ZM48.8254 47.219L47.4726 47.6956C47.3497 46.9116 46.6886 45.8355 45.1668 45.8355C43.937 45.8355 43.0608 46.6349 43.0608 47.6494C43.0608 48.4334 43.5373 49.0329 44.4597 49.2328L46.0891 49.5864C47.9031 49.986 48.9176 51.1236 48.9176 52.6454C48.9176 54.3364 47.4726 55.8736 45.1514 55.8736C42.5227 55.8736 41.2776 54.1827 41.0778 52.6301L42.5227 52.1689C42.6304 53.3833 43.4912 54.5055 45.136 54.5055C46.6425 54.5055 47.3804 53.7215 47.3804 52.7684C47.3804 51.9844 46.8424 51.308 45.7509 51.0775L44.1983 50.7393C42.6457 50.4011 41.5389 49.3865 41.5389 47.757C41.5389 46.0507 43.1223 44.5135 45.136 44.5135C47.5956 44.5135 48.5794 46.0354 48.8254 47.219ZM52.1902 55.643H50.7606V48.249H52.1902V55.643ZM50.4378 45.4512C50.4378 44.8671 50.899 44.4059 51.4677 44.4059C52.0519 44.4059 52.5131 44.8671 52.5131 45.4512C52.5131 46.02 52.0519 46.4811 51.4677 46.4811C50.899 46.4811 50.4378 46.02 50.4378 45.4512ZM56.0937 51.3695V55.643H54.6487V48.249H56.063V49.3096C56.601 48.3873 57.4772 48.0337 58.3381 48.0337C60.1059 48.0337 60.9821 49.3096 60.9821 50.9545V55.643H59.5371V51.2004C59.5371 50.1705 59.1067 49.3404 57.8154 49.3404C56.6779 49.3404 56.0937 50.2474 56.0937 51.3695ZM62.7426 56.0427L64.1415 55.7199C64.2491 56.7498 65.0331 57.5338 66.1553 57.5338C67.7079 57.5338 68.415 56.7345 68.415 55.1358V54.0751C68.0614 54.7514 67.2621 55.2895 66.1553 55.2895C64.1876 55.2895 62.758 53.7984 62.758 51.7077C62.758 49.7093 64.1261 48.1106 66.1553 48.1106C67.2928 48.1106 68.0614 48.541 68.4304 49.2789V48.249H69.86V55.0896C69.86 56.9651 68.9376 58.7944 66.1553 58.7944C64.3106 58.7944 62.9271 57.6261 62.7426 56.0427ZM66.3705 54.0751C67.6156 54.0751 68.4765 53.1374 68.4765 51.7077C68.4765 50.2781 67.6156 49.3404 66.3705 49.3404C65.0946 49.3404 64.2337 50.2781 64.2337 51.7077C64.2337 53.1527 65.0638 54.0751 66.3705 54.0751ZM73.6127 51.2927V55.643H72.1677V44.5135H73.6127V49.1098C74.1508 48.3258 75.0116 48.0337 75.8571 48.0337C77.6249 48.0337 78.5011 49.3096 78.5011 50.9545V55.643H77.0561V51.2004C77.0561 50.1705 76.6257 49.3404 75.3344 49.3404C74.2276 49.3404 73.6435 50.2012 73.6127 51.2927Z" fill="white"/>
<g opacity="0.4" clip-path="url(#clip1_1956_97)">
<path d="M177.12 53.672C176.893 51.6381 175.846 49.7849 174.221 48.5412C171.957 46.5963 168.479 45.0862 164.251 44.0906C165.25 36.5704 163.854 30.8121 159.977 28.9521C156.1 27.092 150.735 29.6064 145.496 35.0921C142.075 32.4182 138.721 30.6511 135.787 30.101C133.801 29.6111 131.7 29.9531 129.972 31.0478C126.374 33.5119 125.874 39.5144 128.056 46.9107C120.921 49.8377 116.552 53.9836 116.88 58.328C117.107 60.3619 118.154 62.2151 119.779 63.4588C120.882 64.3774 122.101 65.1485 123.403 65.7524C125.436 66.6959 127.563 67.4192 129.75 67.9099C128.75 75.4318 130.146 81.1879 134.023 83.0479C137.9 84.908 143.263 82.3946 148.504 76.9079C150.255 78.3059 152.15 79.5127 154.158 80.5079C155.444 81.146 156.808 81.614 158.215 81.8999C160.201 82.3898 162.301 82.0478 164.03 80.953C167.624 78.4904 168.122 72.4906 165.942 65.0915C173.079 62.1623 177.448 58.0164 177.12 53.672ZM172.919 50.0626C174.133 50.9662 174.929 52.3225 175.127 53.8226C175.385 57.215 171.501 60.6235 165.321 63.1641C164.303 60.2695 163.051 57.4625 161.578 54.7712C162.596 51.943 163.384 49.0372 163.934 46.0821C167.779 47.0034 170.925 48.353 172.919 50.0626ZM147.833 67.0685C145.721 67.2318 143.63 67.2936 141.597 67.261C140.3 65.6956 139.044 64.0285 137.845 62.2764C136.663 60.5446 135.59 58.7963 134.622 57.0588C135.329 55.1396 136.147 53.1909 137.082 51.2417C138.018 49.2924 139.026 47.4346 140.082 45.6833C142.043 45.3507 144.078 45.0939 146.169 44.9324C148.279 44.7678 150.366 44.7069 152.402 44.7408C153.701 46.3079 154.963 47.974 156.159 49.7257C157.342 51.4575 158.415 53.2059 159.383 54.9434C158.676 56.8625 157.859 58.8121 156.924 60.7613C155.989 62.7106 154.985 64.5706 153.924 66.3198C151.959 66.6501 149.924 66.9069 147.833 67.0685ZM152.498 68.5727C151.221 70.5174 149.819 72.3767 148.299 74.139C146.542 72.6223 144.885 70.9945 143.336 69.2655C144.863 69.2468 146.414 69.1795 147.987 69.0635C149.528 68.9442 151.033 68.7811 152.502 68.5744L152.498 68.5727ZM138.946 67.1592C136.628 67.0331 134.321 66.7584 132.038 66.3371C132.461 64.0489 133.032 61.7907 133.749 59.5768C134.505 60.8485 135.319 62.1238 136.189 63.4028C137.081 64.7063 138 65.9584 138.946 67.1592ZM133.375 54.7045C132.293 52.5717 131.354 50.3699 130.562 48.1133C132.818 47.3185 135.123 46.6736 137.463 46.1826C136.706 47.5228 135.978 48.9207 135.279 50.3765C134.581 51.8323 133.946 53.275 133.375 54.7045ZM146.009 42.9348C144.472 43.0555 142.968 43.2191 141.498 43.4256C142.775 41.4816 144.177 39.6228 145.696 37.8611C147.454 39.3762 149.112 41.0026 150.662 42.7301C149.138 42.7487 147.588 42.8175 146.013 42.9365L146.009 42.9348ZM155.056 44.8353C157.373 44.9616 159.678 45.2358 161.96 45.6563C161.538 47.9467 160.968 50.2072 160.251 52.4232C159.495 51.1521 158.681 49.8768 157.811 48.5972C156.923 47.2964 156.005 46.0442 155.058 44.8407L155.056 44.8353ZM160.624 57.2901C161.706 59.4246 162.646 61.6283 163.438 63.8867C161.183 64.6815 158.877 65.3264 156.537 65.8174C157.294 64.4772 158.022 63.0792 158.721 61.6235C159.419 60.1677 160.054 58.725 160.625 57.2955L160.624 57.2901ZM159.112 30.7553C162.132 32.2039 163.138 37.1742 162.277 43.6777C159.331 43.1383 156.347 42.8312 153.353 42.7591C151.422 40.4694 149.316 38.3343 147.052 36.3732C151.586 31.632 156.093 29.3066 159.112 30.7553ZM131.099 32.6987C132.392 31.9143 133.948 31.6866 135.412 32.0675C136.64 32.3176 137.83 32.7264 138.953 33.2836C140.791 34.1979 142.529 35.3033 144.136 36.5814C142.175 38.8593 140.401 41.2921 138.833 43.8559C135.813 44.3917 132.841 45.1726 129.948 46.1906C128.062 39.7851 128.293 34.6212 131.099 32.6987ZM121.081 61.9374C119.868 61.0337 119.072 59.6777 118.874 58.1778C118.616 54.7854 122.5 51.377 128.68 48.8363C129.696 51.7301 130.947 54.5363 132.418 57.2271C131.4 60.0552 130.613 62.9611 130.063 65.9162C126.221 64.9966 123.074 63.6466 121.081 61.9374ZM134.888 81.2447C131.868 79.796 130.862 74.8258 131.723 68.3223C134.668 68.8631 137.651 69.172 140.645 69.2463C142.576 71.5347 144.683 73.6684 146.947 75.6276C142.414 80.3679 137.907 82.6934 134.888 81.2447ZM162.901 79.3013C161.608 80.0857 160.052 80.3134 158.588 79.9325C156.008 79.4481 152.985 77.8421 149.864 75.4142C151.825 73.1362 153.598 70.7034 155.167 68.1396C158.189 67.6047 161.161 66.8246 164.056 65.8071C165.938 72.2149 165.707 77.3788 162.901 79.3013Z" fill="white"/>
<path d="M150.028 49.6888C146.542 48.0165 142.361 49.4864 140.689 52.972C139.016 56.4575 140.486 60.6388 143.972 62.3112C147.458 63.9835 151.639 62.5136 153.311 59.028C154.984 55.5424 153.514 51.3611 150.028 49.6888ZM147.865 54.1968C146.869 53.719 145.675 54.139 145.197 55.1348C144.958 55.6328 144.361 55.8428 143.863 55.6039C143.365 55.365 143.155 54.7676 143.394 54.2697C144.349 52.2779 146.739 51.438 148.73 52.3936C149.228 52.6325 149.438 53.2298 149.199 53.7278C148.96 54.2257 148.363 54.4357 147.865 54.1968Z" fill="white"/>
<path d="M155.652 37.968C156.647 38.4458 157.842 38.0259 158.32 37.03C158.798 36.0341 158.378 34.8394 157.382 34.3616C156.386 33.8838 155.191 34.3038 154.713 35.2997C154.236 36.2956 154.656 37.4902 155.652 37.968Z" fill="white"/>
<path d="M121.792 46.1237C122.788 46.6015 123.982 46.1815 124.46 45.1856C124.938 44.1897 124.518 42.9951 123.522 42.5173C122.526 42.0395 121.331 42.4594 120.854 43.4553C120.376 44.4512 120.796 45.6459 121.792 46.1237Z" fill="white"/>
<path d="M170.478 69.4827C171.474 69.9605 172.669 69.5406 173.146 68.5447C173.624 67.5488 173.204 66.3541 172.208 65.8763C171.212 65.3985 170.018 65.8185 169.54 66.8144C169.062 67.8103 169.482 69.0049 170.478 69.4827Z" fill="white"/>
<path d="M124.246 59.5018C125.242 59.9797 126.437 59.5597 126.915 58.5638C127.392 57.5679 126.972 56.3733 125.976 55.8955C124.981 55.4176 123.786 55.8376 123.308 56.8335C122.83 57.8294 123.25 59.024 124.246 59.5018Z" fill="white"/>
</g>
</g>
<defs>
<clipPath id="clip0_1956_97">
<rect width="188" height="74" rx="10.8989" fill="white"/>
</clipPath>
<clipPath id="clip1_1956_97">
<rect width="60" height="60" fill="white" transform="translate(132.929 15.9748) rotate(25.6311)"/>
</clipPath>
</defs>
</svg>
