<svg width="188" height="74" viewBox="0 0 188 74" fill="none" xmlns="http://www.w3.org/2000/svg">
<g clip-path="url(#clip0_1956_100)">
<rect width="188" height="74" rx="10.8989" fill="#4D52E3"/>
<path d="M26.8322 23.0228L24.5025 23.7368C24.371 23.004 23.7697 21.8579 22.0788 21.8579C20.82 21.8579 19.9933 22.6658 19.9933 23.5489C19.9933 24.2816 20.463 24.8641 21.44 25.052L23.3 25.4089C25.7237 25.8786 27.0201 27.4569 27.0201 29.3357C27.0201 31.3836 25.3104 33.4504 22.2103 33.4504C18.6781 33.4504 17.1187 31.177 16.912 29.2793L19.3169 28.6405C19.4296 29.9557 20.3502 31.1394 22.2291 31.1394C23.6194 31.1394 24.3897 30.4442 24.3897 29.5048C24.3897 28.7345 23.8073 28.1332 22.7739 27.9266L20.9139 27.5508C18.7908 27.1187 17.4193 25.7471 17.4193 23.7368C17.4193 21.3694 19.5423 19.5658 22.06 19.5658C25.2916 19.5658 26.5316 21.5197 26.8322 23.0228ZM33.1002 31.177C34.3215 31.177 35.4488 30.2939 35.4488 28.5466C35.4488 26.7993 34.3215 25.9162 33.1002 25.9162C31.879 25.9162 30.7517 26.7993 30.7517 28.5466C30.7517 30.2751 31.879 31.177 33.1002 31.177ZM33.1002 23.6428C35.8621 23.6428 37.9476 25.6908 37.9476 28.5466C37.9476 31.3836 35.8621 33.4504 33.1002 33.4504C30.3383 33.4504 28.2528 31.3836 28.2528 28.5466C28.2528 25.6908 30.3383 23.6428 33.1002 23.6428ZM44.0723 25.9538C42.7947 25.9538 41.7238 26.8744 41.7238 28.5466C41.7238 30.2188 42.8135 31.1582 44.0911 31.1582C45.3687 31.1582 46.0075 30.3127 46.2142 29.5987L48.4124 30.3315C47.9991 31.8721 46.5524 33.4504 44.0911 33.4504C41.3668 33.4504 39.2249 31.3836 39.2249 28.5466C39.2249 25.6908 41.3292 23.6428 44.0159 23.6428C46.5336 23.6428 47.9615 25.2023 48.3561 26.7617L46.1202 27.5132C45.8948 26.7429 45.3123 25.9538 44.0723 25.9538ZM52.7489 33.1685H50.25V23.9247H52.7489V33.1685ZM49.9494 20.8997C49.9494 20.0355 50.6446 19.3403 51.49 19.3403C52.3543 19.3403 53.0307 20.0355 53.0307 20.8997C53.0307 21.7264 52.3543 22.4216 51.49 22.4216C50.6446 22.4216 49.9494 21.7264 49.9494 20.8997ZM54.8605 30.6509C54.8605 28.9975 56.0817 28.0769 57.6224 27.8514L59.8958 27.5132C60.4219 27.4381 60.591 27.175 60.591 26.8556C60.591 26.198 60.0837 25.6532 59.0315 25.6532C57.9418 25.6532 57.3406 26.3484 57.2654 27.1562L55.0484 26.6865C55.1987 25.2398 56.5327 23.6428 59.0127 23.6428C61.9437 23.6428 63.0334 25.2962 63.0334 27.1562V31.703C63.0334 32.1915 63.0898 32.8491 63.1462 33.1685H60.854C60.7976 32.9243 60.76 32.417 60.76 32.06C60.2903 32.7928 59.4073 33.4316 58.0357 33.4316C56.063 33.4316 54.8605 32.0976 54.8605 30.6509ZM58.5618 31.5715C59.614 31.5715 60.591 31.0642 60.591 29.4296V29.0163L58.5054 29.3357C57.8666 29.4296 57.3594 29.7866 57.3594 30.5006C57.3594 31.0454 57.7539 31.5715 58.5618 31.5715ZM68.0511 33.1685H65.5523V19.5658H68.0511V33.1685ZM84.5184 23.0228L82.1886 23.7368C82.0571 23.004 81.4559 21.8579 79.7649 21.8579C78.5061 21.8579 77.6794 22.6658 77.6794 23.5489C77.6794 24.2816 78.1491 24.8641 79.1261 25.052L80.9862 25.4089C83.4099 25.8786 84.7063 27.4569 84.7063 29.3357C84.7063 31.3836 82.9965 33.4504 79.8964 33.4504C76.3642 33.4504 74.8048 31.177 74.5981 29.2793L77.003 28.6405C77.1158 29.9557 78.0364 31.1394 79.9152 31.1394C81.3056 31.1394 82.0759 30.4442 82.0759 29.5048C82.0759 28.7345 81.4934 28.1332 80.4601 27.9266L78.6 27.5508C76.477 27.1187 75.1054 25.7471 75.1054 23.7368C75.1054 21.3694 77.2285 19.5658 79.7461 19.5658C82.9777 19.5658 84.2178 21.5197 84.5184 23.0228ZM90.7863 25.9538C89.5087 25.9538 88.4378 26.8744 88.4378 28.5466C88.4378 30.2188 89.5275 31.1582 90.8051 31.1582C92.0827 31.1582 92.7215 30.3127 92.9282 29.5987L95.1265 30.3315C94.7131 31.8721 93.2664 33.4504 90.8051 33.4504C88.0808 33.4504 85.9389 31.3836 85.9389 28.5466C85.9389 25.6908 88.0432 23.6428 90.73 23.6428C93.2476 23.6428 94.6755 25.2023 95.0701 26.7617L92.8343 27.5132C92.6088 26.7429 92.0264 25.9538 90.7863 25.9538ZM99.4629 33.1685H96.964V23.9247H99.4629V33.1685ZM96.6634 20.8997C96.6634 20.0355 97.3586 19.3403 98.2041 19.3403C99.0683 19.3403 99.7447 20.0355 99.7447 20.8997C99.7447 21.7264 99.0683 22.4216 98.2041 22.4216C97.3586 22.4216 96.6634 21.7264 96.6634 20.8997ZM103.961 27.4944H108.094C108.057 26.5738 107.455 25.672 106.027 25.672C104.731 25.672 104.017 26.649 103.961 27.4944ZM108.338 29.8994L110.424 30.5194C109.954 32.1164 108.489 33.4504 106.215 33.4504C103.679 33.4504 101.443 31.6279 101.443 28.509C101.443 25.5592 103.622 23.6428 105.99 23.6428C108.846 23.6428 110.555 25.4653 110.555 28.4339C110.555 28.7908 110.518 29.1666 110.518 29.2042H103.904C103.961 30.4254 104.994 31.3085 106.234 31.3085C107.399 31.3085 108.038 30.726 108.338 29.8994ZM115.022 27.8514V33.1685H112.523V23.9247H114.947V25.0707C115.511 24.1125 116.619 23.6804 117.615 23.6804C119.907 23.6804 120.959 25.315 120.959 27.3441V33.1685H118.46V27.7763C118.46 26.7429 117.953 25.935 116.751 25.935C115.661 25.935 115.022 26.7805 115.022 27.8514ZM127.647 25.9538C126.37 25.9538 125.299 26.8744 125.299 28.5466C125.299 30.2188 126.389 31.1582 127.666 31.1582C128.944 31.1582 129.583 30.3127 129.789 29.5987L131.988 30.3315C131.574 31.8721 130.128 33.4504 127.666 33.4504C124.942 33.4504 122.8 31.3836 122.8 28.5466C122.8 25.6908 124.904 23.6428 127.591 23.6428C130.109 23.6428 131.537 25.2023 131.931 26.7617L129.695 27.5132C129.47 26.7429 128.888 25.9538 127.647 25.9538ZM135.556 27.4944H139.689C139.652 26.5738 139.051 25.672 137.623 25.672C136.326 25.672 135.612 26.649 135.556 27.4944ZM139.934 29.8994L142.019 30.5194C141.549 32.1164 140.084 33.4504 137.811 33.4504C135.274 33.4504 133.038 31.6279 133.038 28.509C133.038 25.5592 135.218 23.6428 137.585 23.6428C140.441 23.6428 142.151 25.4653 142.151 28.4339C142.151 28.7908 142.113 29.1666 142.113 29.2042H135.5C135.556 30.4254 136.589 31.3085 137.829 31.3085C138.994 31.3085 139.633 30.726 139.934 29.8994Z" fill="white"/>
<path d="M23.3735 55.643L20.8832 51.1851H19.2537V55.643H17.7318V44.7441H21.8362C23.8961 44.7441 25.172 46.1891 25.172 47.9876C25.172 49.5556 24.1728 50.77 22.528 51.0775L25.1259 55.643H23.3735ZM19.2537 49.8323H21.5595C22.7893 49.8323 23.6194 49.1098 23.6194 47.9876C23.6194 46.8347 22.7893 46.0968 21.5595 46.0968H19.2537V49.8323ZM26.5595 53.66C26.5595 52.338 27.5279 51.6001 28.8039 51.4157L30.8022 51.1236C31.248 51.0621 31.371 50.8315 31.371 50.5702C31.371 49.8477 30.8945 49.2482 29.7723 49.2482C28.7577 49.2482 28.189 49.8784 28.0967 50.7393L26.7132 50.4165C26.8669 49.0022 28.1428 48.0184 29.7416 48.0184C31.9552 48.0184 32.816 49.2789 32.816 50.7239V54.4286C32.816 55.0743 32.8775 55.4586 32.9083 55.643H31.494C31.4633 55.4586 31.4171 55.1819 31.4171 54.6438C31.0943 55.1665 30.3565 55.8736 29.0344 55.8736C27.5279 55.8736 26.5595 54.8283 26.5595 53.66ZM29.2343 54.6592C30.4179 54.6592 31.371 54.0904 31.371 52.4763V52.1382L29.1113 52.4763C28.4964 52.5686 28.0352 52.9221 28.0352 53.5831C28.0352 54.1366 28.4964 54.6592 29.2343 54.6592ZM35.0671 56.4424V48.249H36.5121V56.5039C36.5121 57.8413 35.7435 58.7944 34.4676 58.7944C33.9142 58.7944 33.699 58.7175 33.6067 58.6868V57.4723C33.6836 57.4877 33.8527 57.5185 34.0679 57.5185C34.8211 57.5185 35.0671 57.1188 35.0671 56.4424ZM34.7443 45.4205C34.7443 44.8363 35.2055 44.3751 35.7742 44.3751C36.3584 44.3751 36.8195 44.8363 36.8195 45.4205C36.8195 45.9892 36.3584 46.4504 35.7742 46.4504C35.2055 46.4504 34.7443 45.9892 34.7443 45.4205ZM49.9153 47.219L48.5625 47.6956C48.4396 46.9116 47.7785 45.8355 46.2567 45.8355C45.0269 45.8355 44.1507 46.6349 44.1507 47.6494C44.1507 48.4334 44.6272 49.0329 45.5496 49.2328L47.179 49.5864C48.993 49.986 50.0075 51.1236 50.0075 52.6454C50.0075 54.3364 48.5625 55.8736 46.2413 55.8736C43.6127 55.8736 42.3675 54.1827 42.1677 52.6301L43.6127 52.1689C43.7203 53.3833 44.5811 54.5055 46.2259 54.5055C47.7324 54.5055 48.4703 53.7215 48.4703 52.7684C48.4703 51.9844 47.9323 51.308 46.8408 51.0775L45.2882 50.7393C43.7356 50.4011 42.6288 49.3865 42.6288 47.757C42.6288 46.0507 44.2122 44.5135 46.2259 44.5135C48.6855 44.5135 49.6693 46.0354 49.9153 47.219ZM53.2802 55.643H51.8505V48.249H53.2802V55.643ZM51.5277 45.4512C51.5277 44.8671 51.9889 44.4059 52.5577 44.4059C53.1418 44.4059 53.603 44.8671 53.603 45.4512C53.603 46.02 53.1418 46.4811 52.5577 46.4811C51.9889 46.4811 51.5277 46.02 51.5277 45.4512ZM57.1836 51.3695V55.643H55.7386V48.249H57.1529V49.3096C57.6909 48.3873 58.5671 48.0337 59.428 48.0337C61.1958 48.0337 62.072 49.3096 62.072 50.9545V55.643H60.627V51.2004C60.627 50.1705 60.1966 49.3404 58.9053 49.3404C57.7678 49.3404 57.1836 50.2474 57.1836 51.3695ZM63.8325 56.0427L65.2314 55.7199C65.339 56.7498 66.123 57.5338 67.2452 57.5338C68.7978 57.5338 69.5049 56.7345 69.5049 55.1358V54.0751C69.1513 54.7514 68.352 55.2895 67.2452 55.2895C65.2775 55.2895 63.8479 53.7984 63.8479 51.7077C63.8479 49.7093 65.216 48.1106 67.2452 48.1106C68.3827 48.1106 69.1513 48.541 69.5203 49.2789V48.249H70.9499V55.0896C70.9499 56.9651 70.0275 58.7944 67.2452 58.7944C65.4005 58.7944 64.017 57.6261 63.8325 56.0427ZM67.4604 54.0751C68.7055 54.0751 69.5664 53.1374 69.5664 51.7077C69.5664 50.2781 68.7055 49.3404 67.4604 49.3404C66.1845 49.3404 65.3236 50.2781 65.3236 51.7077C65.3236 53.1527 66.1537 54.0751 67.4604 54.0751ZM74.7026 51.2927V55.643H73.2576V44.5135H74.7026V49.1098C75.2407 48.3258 76.1015 48.0337 76.947 48.0337C78.7148 48.0337 79.591 49.3096 79.591 50.9545V55.643H78.146V51.2004C78.146 50.1705 77.7156 49.3404 76.4243 49.3404C75.3175 49.3404 74.7334 50.2012 74.7026 51.2927Z" fill="white"/>
<g opacity="0.4" clip-path="url(#clip1_1956_100)">
<path d="M172.712 75.4348C172.697 75.4231 172.683 75.4114 172.668 75.3999L170.765 73.9565L167.284 71.2336L164.705 69.2292L166.436 66.9078C166.754 66.479 166.671 65.8672 166.251 65.5385L163.78 63.6182C163.358 63.292 162.758 63.3732 162.437 63.8001L161.765 64.7023L158.06 61.4756L169.207 48.1369C169.373 47.9367 169.453 47.6764 169.429 47.4145L168.624 38.0389C168.602 37.7621 168.465 37.5074 168.248 37.3382C168.031 37.1698 167.754 37.1031 167.486 37.1546L158.417 38.848C158.163 38.8939 157.939 39.0419 157.794 39.2588L148.565 53.2278L135.937 42.2494C135.739 42.0788 135.484 41.9959 135.227 42.0192L126.034 42.7997C125.762 42.8213 125.513 42.9593 125.348 43.1794C125.184 43.4002 125.12 43.6821 125.172 43.9549L126.891 53.2067C126.937 53.4656 127.084 53.6952 127.297 53.844L141.616 63.7723L138.905 67.8089L138.016 67.1183C137.594 66.792 136.994 66.8732 136.674 67.3001L134.803 69.8085C134.485 70.2373 134.568 70.8492 134.988 71.1779L137.275 72.9549L135.311 75.5649L131.208 81.0658C130.035 82.6449 130.345 84.9012 131.901 86.1051C132.643 86.6796 133.576 86.9335 134.498 86.8114C135.423 86.6892 136.26 86.1948 136.823 85.4381L142.846 77.3628L145.133 79.1399C145.555 79.4661 146.155 79.3849 146.475 78.958L148.346 76.4496C148.664 76.0208 148.581 75.409 148.161 75.0802L147.304 74.3359L150.852 70.1069L155.397 73.2395L154.724 74.1416C154.406 74.5704 154.489 75.1823 154.909 75.511L157.38 77.4312C157.803 77.7575 158.403 77.6762 158.723 77.2494L160.454 74.928L163.034 76.9324L166.523 79.6443L168.409 81.1097C169.953 82.3293 172.167 82.0476 173.356 80.4805C174.544 78.9135 174.256 76.6543 172.712 75.4348ZM160.58 66.267L159.136 68.2033L155.061 65.0366L156.789 62.9729L160.58 66.267ZM128.647 52.4249L127.204 44.639L134.941 43.9865L147.428 54.8553L145.56 57.6699L141.008 54.1327C140.561 53.8379 139.967 53.9668 139.68 54.4206C139.424 54.8255 139.497 55.3617 139.851 55.684L144.538 59.2918L142.689 62.1039L128.647 52.4249ZM135.264 84.1658C135.008 84.5113 134.627 84.7374 134.205 84.7939C133.32 84.8462 132.558 84.1574 132.502 83.2553C132.479 82.8945 132.575 82.537 132.773 82.2384L133.594 81.1383L136.126 83.0799L135.264 84.1658ZM137.266 81.4814L134.773 79.5346L136.258 77.5433L138.815 79.5309L137.266 81.4814ZM139.917 77.9278L137.359 75.9402L138.793 74.1437L141.351 76.1313L139.917 77.9278ZM145.499 76.9045L143.223 75.1359L139.138 71.9608L136.904 70.2162L137.61 69.27L146.279 76.0076L145.499 76.9045ZM145.712 73.1076L143.805 71.6253L157.508 53.2524C157.86 52.8494 157.824 52.23 157.427 51.8689C157.029 51.5078 156.422 51.5418 156.07 51.9448C156.037 51.9824 156.007 52.0226 155.98 52.0649L142.276 70.4378L140.369 68.9555L143.67 63.9786L159.193 40.7109L166.824 39.2815L167.505 47.1706L155.971 60.9474L145.712 73.1076ZM152.038 68.5615L153.847 66.5263L157.998 69.7519L156.554 71.6883L152.038 68.5615ZM159.418 72.9321L157.769 75.2917L156.837 74.5674L163.402 65.766L164.334 66.4903L162.602 68.8117L159.418 72.9321ZM161.53 73.3482L163.549 70.79L165.359 72.1965L163.422 74.7929L161.53 73.3482ZM166.84 77.475L164.879 75.9506L166.815 73.3542L168.777 74.8786L166.84 77.475ZM171.814 79.2638L171.731 79.2255C171.185 79.9225 170.196 80.0565 169.484 79.53L168.401 78.6878L170.394 76.1529L171.478 76.9951C172.177 77.5346 172.327 78.5438 171.814 79.2638Z" fill="white"/>
</g>
</g>
<defs>
<clipPath id="clip0_1956_100">
<rect width="188" height="74" rx="10.8989" fill="white"/>
</clipPath>
<clipPath id="clip1_1956_100">
<rect width="43.9255" height="44.804" fill="white" transform="translate(125 42.8968) rotate(-7.71497)"/>
</clipPath>
</defs>
</svg>
