<svg width="188" height="74" viewBox="0 0 188 74" fill="none" xmlns="http://www.w3.org/2000/svg">
<g clip-path="url(#clip0_1956_103)">
<rect width="188" height="74" rx="10.8989" fill="#FC8F3C"/>
<path d="M27.7903 33.1685H25.1787V27.6447H19.3731V33.1685H16.7803V19.8476H19.3731V25.2023H25.1787V19.8476H27.7903V33.1685ZM33.1458 33.1685H30.647V23.9247H33.1458V33.1685ZM30.3464 20.8997C30.3464 20.0355 31.0415 19.3403 31.887 19.3403C32.7513 19.3403 33.4276 20.0355 33.4276 20.8997C33.4276 21.7264 32.7513 22.4216 31.887 22.4216C31.0415 22.4216 30.3464 21.7264 30.3464 20.8997ZM38.32 27.8514V33.1685H35.8211V23.9247H38.2448V25.0707C38.8085 24.1125 39.917 23.6804 40.9128 23.6804C43.2049 23.6804 44.2571 25.315 44.2571 27.3441V33.1685H41.7582V27.7763C41.7582 26.7429 41.2509 25.935 40.0485 25.935C38.9588 25.935 38.32 26.7805 38.32 27.8514ZM55.605 19.5658V31.4964C55.605 32.1164 55.6425 32.7928 55.6801 33.1685H53.294C53.2564 32.9806 53.2 32.5297 53.2 32.0976C52.7867 32.8303 51.8473 33.394 50.6073 33.394C47.9769 33.394 46.098 31.3273 46.098 28.5278C46.098 25.8223 47.9205 23.6992 50.5321 23.6992C52.1291 23.6992 52.8806 24.3568 53.1437 24.8453V19.5658H55.605ZM48.6157 28.5278C48.6157 30.1812 49.5927 31.1582 50.9079 31.1582C52.1855 31.1582 53.1813 30.1812 53.1813 28.509C53.1813 26.8556 52.1855 25.935 50.9079 25.935C49.6303 25.935 48.6157 26.8744 48.6157 28.5278ZM60.8146 33.1685H58.3158V23.9247H60.8146V33.1685ZM58.0152 20.8997C58.0152 20.0355 58.7103 19.3403 59.5558 19.3403C60.4201 19.3403 61.0964 20.0355 61.0964 20.8997C61.0964 21.7264 60.4201 22.4216 59.5558 22.4216C58.7103 22.4216 58.0152 21.7264 58.0152 20.8997Z" fill="white"/>
<path d="M22.2836 55.643L19.7933 51.1851H18.1638V55.643H16.6419V44.7441H20.7463C22.8062 44.7441 24.0821 46.1891 24.0821 47.9876C24.0821 49.5556 23.0829 50.77 21.4381 51.0775L24.036 55.643H22.2836ZM18.1638 49.8323H20.4696C21.6994 49.8323 22.5295 49.1098 22.5295 47.9876C22.5295 46.8347 21.6994 46.0968 20.4696 46.0968H18.1638V49.8323ZM25.4696 53.66C25.4696 52.338 26.438 51.6001 27.7139 51.4157L29.7123 51.1236C30.1581 51.0621 30.2811 50.8315 30.2811 50.5702C30.2811 49.8477 29.8046 49.2482 28.6824 49.2482C27.6678 49.2482 27.0991 49.8784 27.0068 50.7393L25.6233 50.4165C25.777 49.0022 27.0529 48.0184 28.6517 48.0184C30.8653 48.0184 31.7261 49.2789 31.7261 50.7239V54.4286C31.7261 55.0743 31.7876 55.4586 31.8183 55.643H30.4041C30.3734 55.4586 30.3272 55.1819 30.3272 54.6438C30.0044 55.1665 29.2665 55.8736 27.9445 55.8736C26.438 55.8736 25.4696 54.8283 25.4696 53.66ZM28.1444 54.6592C29.328 54.6592 30.2811 54.0904 30.2811 52.4763V52.1382L28.0214 52.4763C27.4065 52.5686 26.9453 52.9221 26.9453 53.5831C26.9453 54.1366 27.4065 54.6592 28.1444 54.6592ZM33.9772 56.4424V48.249H35.4222V56.5039C35.4222 57.8413 34.6536 58.7944 33.3777 58.7944C32.8243 58.7944 32.6091 58.7175 32.5168 58.6868V57.4723C32.5937 57.4877 32.7628 57.5185 32.978 57.5185C33.7312 57.5185 33.9772 57.1188 33.9772 56.4424ZM33.6544 45.4205C33.6544 44.8363 34.1155 44.3751 34.6843 44.3751C35.2685 44.3751 35.7296 44.8363 35.7296 45.4205C35.7296 45.9892 35.2685 46.4504 34.6843 46.4504C34.1155 46.4504 33.6544 45.9892 33.6544 45.4205ZM48.8254 47.219L47.4726 47.6956C47.3497 46.9116 46.6886 45.8355 45.1668 45.8355C43.937 45.8355 43.0608 46.6349 43.0608 47.6494C43.0608 48.4334 43.5373 49.0329 44.4597 49.2328L46.0891 49.5864C47.9031 49.986 48.9176 51.1236 48.9176 52.6454C48.9176 54.3364 47.4726 55.8736 45.1514 55.8736C42.5227 55.8736 41.2776 54.1827 41.0778 52.6301L42.5227 52.1689C42.6304 53.3833 43.4912 54.5055 45.136 54.5055C46.6425 54.5055 47.3804 53.7215 47.3804 52.7684C47.3804 51.9844 46.8424 51.308 45.7509 51.0775L44.1983 50.7393C42.6457 50.4011 41.5389 49.3865 41.5389 47.757C41.5389 46.0507 43.1223 44.5135 45.136 44.5135C47.5956 44.5135 48.5794 46.0354 48.8254 47.219ZM52.1902 55.643H50.7606V48.249H52.1902V55.643ZM50.4378 45.4512C50.4378 44.8671 50.899 44.4059 51.4677 44.4059C52.0519 44.4059 52.5131 44.8671 52.5131 45.4512C52.5131 46.02 52.0519 46.4811 51.4677 46.4811C50.899 46.4811 50.4378 46.02 50.4378 45.4512ZM56.0937 51.3695V55.643H54.6487V48.249H56.063V49.3096C56.601 48.3873 57.4772 48.0337 58.3381 48.0337C60.1059 48.0337 60.9821 49.3096 60.9821 50.9545V55.643H59.5371V51.2004C59.5371 50.1705 59.1067 49.3404 57.8154 49.3404C56.6779 49.3404 56.0937 50.2474 56.0937 51.3695ZM62.7426 56.0427L64.1415 55.7199C64.2491 56.7498 65.0331 57.5338 66.1553 57.5338C67.7079 57.5338 68.415 56.7345 68.415 55.1358V54.0751C68.0614 54.7514 67.2621 55.2895 66.1553 55.2895C64.1876 55.2895 62.758 53.7984 62.758 51.7077C62.758 49.7093 64.1261 48.1106 66.1553 48.1106C67.2928 48.1106 68.0614 48.541 68.4304 49.2789V48.249H69.86V55.0896C69.86 56.9651 68.9376 58.7944 66.1553 58.7944C64.3106 58.7944 62.9271 57.6261 62.7426 56.0427ZM66.3705 54.0751C67.6156 54.0751 68.4765 53.1374 68.4765 51.7077C68.4765 50.2781 67.6156 49.3404 66.3705 49.3404C65.0946 49.3404 64.2337 50.2781 64.2337 51.7077C64.2337 53.1527 65.0638 54.0751 66.3705 54.0751ZM73.6127 51.2927V55.643H72.1677V44.5135H73.6127V49.1098C74.1508 48.3258 75.0116 48.0337 75.8571 48.0337C77.6249 48.0337 78.5011 49.3096 78.5011 50.9545V55.643H77.0561V51.2004C77.0561 50.1705 76.6257 49.3404 75.3344 49.3404C74.2276 49.3404 73.6435 50.2012 73.6127 51.2927Z" fill="white"/>
<g opacity="0.4">
<path d="M128.53 40.67L132.41 40.67L132.41 42.05C130.37 42.51 128.84 44.34 128.84 46.52C128.84 49.04 130.89 51.1 133.41 51.1C135.93 51.1 137.99 49.05 137.99 46.52C137.99 45.97 137.54 45.52 136.99 45.52C136.44 45.52 135.99 45.97 135.99 46.52C135.99 47.94 134.83 49.1 133.41 49.1C131.99 49.1 130.84 47.94 130.84 46.52C130.84 45.1 131.99 43.94 133.41 43.94C133.96 43.94 134.41 43.49 134.41 42.94L134.41 40.67L139.37 40.67L139.37 50.09C139.37 50.64 139.82 51.09 140.37 51.09C140.92 51.09 141.37 50.64 141.37 50.09L141.37 40.67L143.58 40.67C144.13 40.67 144.58 40.22 144.58 39.67C144.58 39.12 144.13 38.67 143.58 38.67L141.1 38.67L136.13 34.97C135.63 34.54 134.94 34.44 134.34 34.72C133.74 35 133.36 35.58 133.36 36.25C133.36 36.32 133.37 36.39 133.38 36.46L133.85 38.68L128.54 38.68C127.99 38.68 127.54 39.13 127.54 39.68C127.54 40.23 127.97 40.67 128.53 40.67ZM135.53 37.03L137.74 38.67L135.88 38.67L135.53 37.03Z" fill="white"/>
<path d="M124.77 55.76L125.47 55.76L125.47 60.3C125.47 60.7 125.71 61.07 126.09 61.22C126.21 61.27 126.34 61.3 126.47 61.3C126.73 61.3 126.99 61.2 127.18 61.01L132.42 55.77L142 55.77L142 61.07C142 63.42 143.91 65.33 146.26 65.33L159.08 65.33L163.57 69.82C163.76 70.01 164.02 70.11 164.28 70.11C164.41 70.11 164.54 70.09 164.66 70.03C165.03 69.88 165.28 69.51 165.28 69.11L165.28 65.33L165.74 65.33C168.09 65.33 170 63.42 170 61.07L170 46.97C170 44.62 168.09 42.71 165.74 42.71L152.1 42.71L152.1 34.68C152.1 32.05 149.96 29.91 147.33 29.91L124.77 29.91C122.14 29.9 120 32.04 120 34.67L120 50.99C120 53.62 122.14 55.76 124.77 55.76ZM165.74 44.7C166.99 44.7 168 45.71 168 46.96L168 61.06C168 62.31 166.99 63.32 165.74 63.32L164.28 63.32C163.73 63.32 163.28 63.77 163.28 64.32L163.28 66.69L160.2 63.61C160.01 63.42 159.76 63.32 159.49 63.32L146.26 63.32C145.01 63.32 144 62.31 144 61.06L144 55.76L147.32 55.76C149.95 55.76 152.09 53.62 152.09 50.99L152.09 44.7L165.74 44.7ZM122 34.67C122 33.14 123.24 31.9 124.77 31.9L147.32 31.9C148.85 31.9 150.09 33.14 150.09 34.67L150.09 50.99C150.09 52.52 148.85 53.76 147.32 53.76L132 53.76C131.73 53.76 131.48 53.87 131.29 54.05L127.46 57.88L127.46 54.76C127.46 54.21 127.01 53.76 126.46 53.76L124.76 53.76C123.24 53.76 122 52.52 122 50.99L122 34.67Z" fill="white"/>
<path d="M155.41 51.13L158.11 51.13L158.11 57.89C158.11 58.44 158.56 58.89 159.11 58.89C159.66 58.89 160.11 58.44 160.11 57.89L160.11 51.13L162.81 51.13C163.36 51.13 163.81 50.68 163.81 50.13C163.81 49.58 163.36 49.13 162.81 49.13L155.4 49.13C154.85 49.13 154.4 49.58 154.4 50.13C154.4 50.68 154.86 51.13 155.41 51.13Z" fill="white"/>
</g>
</g>
<defs>
<clipPath id="clip0_1956_103">
<rect width="188" height="74" rx="10.8989" fill="white"/>
</clipPath>
</defs>
</svg>
