<svg width="216" height="135" viewBox="0 0 216 135" fill="none" xmlns="http://www.w3.org/2000/svg">
<g filter="url(#filter0_d_2049_198)">
<path d="M191.315 14.4835H148.654C145.7 14.4835 142.896 13.1768 140.996 10.914L132.366 0.636062C132.019 0.21824 131.499 -0.0160796 130.956 0.000859061H24.6846C17.6531 0.0707312 11.9919 5.80343 12 12.846V98.1689C11.9997 105.206 17.6587 110.93 24.6846 111H191.315C198.341 110.93 204 105.206 204 98.1689V27.3145C204 20.2776 198.341 14.5533 191.315 14.4835Z" fill="white"/>
<path d="M131.906 1.02189L131.904 1.01945C131.675 0.743773 131.332 0.589408 130.975 0.600567L130.966 0.600859H130.956H24.6876C17.9876 0.669023 12.5923 6.1322 12.6 12.8454L12.6 12.846L12.6 98.169C12.5997 104.877 17.993 110.332 24.6875 110.4L131.906 1.02189ZM131.906 1.02189L140.537 11.2998C142.551 13.6984 145.522 15.0835 148.654 15.0835H191.312L131.906 1.02189Z" stroke="#353A40" stroke-opacity="0.1" stroke-width="1.2"/>
</g>
<path d="M24.7173 18V10.7273H27.4446C28.0033 10.7273 28.4721 10.8314 28.8509 11.0398C29.232 11.2481 29.5196 11.5346 29.7138 11.8991C29.9103 12.2614 30.0085 12.6733 30.0085 13.1349C30.0085 13.6013 29.9103 14.0156 29.7138 14.3778C29.5173 14.7401 29.2273 15.0253 28.8438 15.2337C28.4602 15.4396 27.9879 15.5426 27.4268 15.5426H25.6193V14.4595H27.2493C27.576 14.4595 27.8435 14.4027 28.0518 14.2891C28.2602 14.1754 28.4141 14.0192 28.5135 13.8203C28.6153 13.6214 28.6662 13.393 28.6662 13.1349C28.6662 12.8769 28.6153 12.6496 28.5135 12.4531C28.4141 12.2566 28.259 12.1039 28.0483 11.995C27.84 11.8838 27.5713 11.8281 27.2422 11.8281H26.0348V18H24.7173ZM33.4327 18.1065C32.8858 18.1065 32.4135 17.9929 32.0158 17.7656C31.6204 17.536 31.3162 17.2116 31.1032 16.7926C30.8901 16.3712 30.7836 15.8752 30.7836 15.3047C30.7836 14.7436 30.8901 14.2512 31.1032 13.8274C31.3186 13.4013 31.6193 13.0698 32.0051 12.8331C32.391 12.594 32.8444 12.4744 33.3652 12.4744C33.7014 12.4744 34.0186 12.5289 34.3169 12.6378C34.6176 12.7443 34.8828 12.91 35.1124 13.1349C35.3444 13.3598 35.5267 13.6463 35.6593 13.9943C35.7918 14.34 35.8581 14.7519 35.8581 15.2301V15.6243H31.3873V14.7578H34.6259C34.6235 14.5116 34.5703 14.2926 34.4661 14.1009C34.3619 13.9067 34.2163 13.754 34.0293 13.6428C33.8446 13.5315 33.6292 13.4759 33.383 13.4759C33.1202 13.4759 32.8894 13.5398 32.6905 13.6676C32.4917 13.7931 32.3366 13.9588 32.2253 14.1648C32.1164 14.3684 32.0608 14.5921 32.0584 14.8359V15.5923C32.0584 15.9096 32.1164 16.1818 32.2324 16.4091C32.3484 16.634 32.5106 16.8068 32.7189 16.9276C32.9273 17.0459 33.1711 17.1051 33.4505 17.1051C33.6375 17.1051 33.8068 17.0791 33.9583 17.027C34.1098 16.9725 34.2412 16.8932 34.3525 16.7891C34.4637 16.6849 34.5478 16.5559 34.6046 16.402L35.8049 16.5369C35.7291 16.8542 35.5847 17.1312 35.3716 17.3679C35.1609 17.6023 34.891 17.7846 34.562 17.9148C34.2329 18.0426 33.8565 18.1065 33.4327 18.1065ZM36.9457 18V12.5455H38.1921V13.4545H38.2489C38.3484 13.1397 38.5188 12.897 38.7603 12.7266C39.0041 12.5537 39.2823 12.4673 39.5948 12.4673C39.6658 12.4673 39.7451 12.4709 39.8327 12.478C39.9227 12.4827 39.9973 12.491 40.0565 12.5028V13.6854C40.002 13.6664 39.9156 13.6499 39.7972 13.6357C39.6812 13.6191 39.5688 13.6108 39.4599 13.6108C39.2255 13.6108 39.0148 13.6617 38.8278 13.7635C38.6431 13.8629 38.4975 14.0014 38.391 14.179C38.2844 14.3565 38.2312 14.5613 38.2312 14.7933V18H36.9457ZM40.9105 18V12.5455H42.196V18H40.9105ZM41.5568 11.7713C41.3532 11.7713 41.178 11.7038 41.0312 11.5689C40.8845 11.4316 40.8111 11.267 40.8111 11.0753C40.8111 10.8812 40.8845 10.7166 41.0312 10.5817C41.178 10.4444 41.3532 10.3757 41.5568 10.3757C41.7628 10.3757 41.938 10.4444 42.0824 10.5817C42.2292 10.7166 42.3026 10.8812 42.3026 11.0753C42.3026 11.267 42.2292 11.4316 42.0824 11.5689C41.938 11.7038 41.7628 11.7713 41.5568 11.7713ZM45.8972 18.1065C45.3645 18.1065 44.9029 17.9893 44.5123 17.755C44.1216 17.5206 43.8186 17.1927 43.6032 16.7713C43.3901 16.3499 43.2836 15.8575 43.2836 15.294C43.2836 14.7306 43.3901 14.237 43.6032 13.8132C43.8186 13.3894 44.1216 13.0604 44.5123 12.826C44.9029 12.5916 45.3645 12.4744 45.8972 12.4744C46.4299 12.4744 46.8915 12.5916 47.2821 12.826C47.6728 13.0604 47.9746 13.3894 48.1877 13.8132C48.4031 14.237 48.5108 14.7306 48.5108 15.294C48.5108 15.8575 48.4031 16.3499 48.1877 16.7713C47.9746 17.1927 47.6728 17.5206 47.2821 17.755C46.8915 17.9893 46.4299 18.1065 45.8972 18.1065ZM45.9043 17.0767C46.1931 17.0767 46.4346 16.9974 46.6287 16.8388C46.8229 16.6778 46.9673 16.4624 47.062 16.1925C47.159 15.9226 47.2076 15.6219 47.2076 15.2905C47.2076 14.9567 47.159 14.6548 47.062 14.3849C46.9673 14.1127 46.8229 13.8961 46.6287 13.7351C46.4346 13.5741 46.1931 13.4936 45.9043 13.4936C45.6084 13.4936 45.3622 13.5741 45.1657 13.7351C44.9715 13.8961 44.8259 14.1127 44.7289 14.3849C44.6342 14.6548 44.5868 14.9567 44.5868 15.2905C44.5868 15.6219 44.6342 15.9226 44.7289 16.1925C44.8259 16.4624 44.9715 16.6778 45.1657 16.8388C45.3622 16.9974 45.6084 17.0767 45.9043 17.0767ZM51.6261 18.0959C51.1976 18.0959 50.814 17.9858 50.4755 17.7656C50.137 17.5455 49.8694 17.2259 49.6729 16.8068C49.4764 16.3878 49.3782 15.8788 49.3782 15.2798C49.3782 14.6738 49.4776 14.1624 49.6765 13.7457C49.8777 13.3267 50.1488 13.0107 50.4897 12.7976C50.8306 12.5821 51.2106 12.4744 51.6296 12.4744C51.9492 12.4744 52.212 12.5289 52.418 12.6378C52.6239 12.7443 52.7873 12.8733 52.908 13.0249C53.0288 13.174 53.1223 13.3149 53.1886 13.4474H53.2418V10.7273H54.5309V18H53.2667V17.1406H53.1886C53.1223 17.2732 53.0264 17.4141 52.9009 17.5632C52.7754 17.71 52.6097 17.8355 52.4038 17.9396C52.1978 18.0438 51.9386 18.0959 51.6261 18.0959ZM51.9847 17.0412C52.257 17.0412 52.489 16.9678 52.6808 16.821C52.8725 16.6719 53.0181 16.4647 53.1175 16.1996C53.217 15.9344 53.2667 15.6255 53.2667 15.2727C53.2667 14.92 53.217 14.6134 53.1175 14.353C53.0205 14.0926 52.8761 13.8902 52.6843 13.7457C52.4949 13.6013 52.2617 13.5291 51.9847 13.5291C51.6983 13.5291 51.4592 13.6037 51.2674 13.7528C51.0756 13.902 50.9312 14.108 50.8342 14.3707C50.7371 14.6335 50.6886 14.9342 50.6886 15.2727C50.6886 15.6136 50.7371 15.9179 50.8342 16.1854C50.9336 16.4505 51.0792 16.66 51.271 16.8139C51.4651 16.9654 51.703 17.0412 51.9847 17.0412ZM59.7555 10.7273V18H58.438V10.7273H59.7555Z" fill="#92A9C4"/>
<path d="M25.2912 92V78.9091H30.2003C31.206 78.9091 32.0497 79.0966 32.7315 79.4716C33.4176 79.8466 33.9354 80.3622 34.2848 81.0185C34.6385 81.6705 34.8153 82.4119 34.8153 83.2429C34.8153 84.0824 34.6385 84.8281 34.2848 85.4801C33.9311 86.1321 33.4091 86.6456 32.7188 87.0206C32.0284 87.3913 31.1783 87.5767 30.1683 87.5767H26.9148V85.6271H29.8487C30.4368 85.6271 30.9183 85.5249 31.2933 85.3203C31.6683 85.1158 31.9453 84.8345 32.1243 84.4766C32.3075 84.1186 32.3991 83.7074 32.3991 83.2429C32.3991 82.7784 32.3075 82.3693 32.1243 82.0156C31.9453 81.6619 31.6662 81.3871 31.2869 81.1911C30.9119 80.9908 30.4283 80.8906 29.8359 80.8906H27.6626V92H25.2912ZM39.0868 86.2472V92H36.7729V78.9091H39.0357V83.8501H39.1507C39.3809 83.2962 39.7367 82.8594 40.2182 82.5398C40.704 82.2159 41.3219 82.054 42.0719 82.054C42.7537 82.054 43.3482 82.1967 43.8553 82.4822C44.3624 82.7678 44.7544 83.1854 45.0314 83.7351C45.3127 84.2848 45.4533 84.956 45.4533 85.7486V92H43.1394V86.1065C43.1394 85.446 42.9689 84.9325 42.628 84.5661C42.2914 84.1953 41.8184 84.0099 41.209 84.0099C40.7999 84.0099 40.4334 84.0994 40.1096 84.2784C39.79 84.4531 39.5385 84.7067 39.3553 85.0391C39.1763 85.3714 39.0868 85.7741 39.0868 86.2472ZM48.8986 95.6818C48.5833 95.6818 48.2914 95.6563 48.0229 95.6051C47.7587 95.5582 47.5478 95.5028 47.3901 95.4389L47.927 93.6364C48.2637 93.7344 48.5641 93.7813 48.8283 93.777C49.0925 93.7727 49.3248 93.6896 49.525 93.5277C49.7296 93.37 49.9022 93.1058 50.0428 92.7351L50.2409 92.2045L46.6806 82.1818H49.1351L51.3979 89.5966H51.5002L53.7694 82.1818H56.2303L52.2992 93.1889C52.1159 93.7088 51.873 94.1541 51.5705 94.5249C51.2679 94.8999 50.8972 95.1854 50.4583 95.3814C50.0236 95.5817 49.5037 95.6818 48.8986 95.6818ZM65.5914 84.777L63.4821 85.0071C63.4224 84.794 63.318 84.5938 63.1689 84.4062C63.024 84.2188 62.8279 84.0675 62.5808 83.9524C62.3336 83.8374 62.0311 83.7798 61.6731 83.7798C61.1916 83.7798 60.7868 83.8842 60.4586 84.093C60.1348 84.3018 59.975 84.5724 59.9792 84.9048C59.975 85.1903 60.0794 85.4226 60.2924 85.6016C60.5098 85.7805 60.8677 85.9276 61.3663 86.0426L63.041 86.4006C63.97 86.6009 64.6603 86.9183 65.112 87.353C65.568 87.7876 65.7981 88.3565 65.8024 89.0597C65.7981 89.6776 65.617 90.223 65.2591 90.696C64.9054 91.1648 64.4132 91.5312 63.7825 91.7955C63.1518 92.0597 62.4274 92.1918 61.6092 92.1918C60.4075 92.1918 59.4402 91.9403 58.7072 91.4375C57.9743 90.9304 57.5375 90.2251 57.3968 89.3217L59.6532 89.1044C59.7555 89.5476 59.9728 89.8821 60.3052 90.108C60.6376 90.3338 61.0701 90.4467 61.6028 90.4467C62.1525 90.4467 62.5936 90.3338 62.926 90.108C63.2626 89.8821 63.4309 89.603 63.4309 89.2706C63.4309 88.9893 63.3223 88.7571 63.1049 88.5739C62.8919 88.3906 62.5595 88.25 62.1078 88.152L60.4331 87.8004C59.4913 87.6044 58.7946 87.2741 58.3429 86.8097C57.8912 86.3409 57.6674 85.7486 57.6717 85.0327C57.6674 84.4276 57.8315 83.9034 58.1639 83.4602C58.5005 83.0128 58.9672 82.6676 59.5637 82.4247C60.1646 82.1776 60.8571 82.054 61.6412 82.054C62.7917 82.054 63.6973 82.299 64.3578 82.7891C65.0226 83.2791 65.4338 83.9418 65.5914 84.777ZM67.7104 92V82.1818H70.0243V92H67.7104ZM68.8738 80.7884C68.5073 80.7884 68.1919 80.6669 67.9277 80.424C67.6635 80.1768 67.5314 79.8807 67.5314 79.5355C67.5314 79.1861 67.6635 78.8899 67.9277 78.647C68.1919 78.3999 68.5073 78.2763 68.8738 78.2763C69.2445 78.2763 69.5598 78.3999 69.8198 78.647C70.084 78.8899 70.2161 79.1861 70.2161 79.5355C70.2161 79.8807 70.084 80.1768 69.8198 80.424C69.5598 80.6669 69.2445 80.7884 68.8738 80.7884ZM76.6864 92.1918C75.7063 92.1918 74.8647 91.9766 74.1616 91.5462C73.4627 91.1158 72.9237 90.5213 72.5444 89.7628C72.1694 89 71.9819 88.1222 71.9819 87.1293C71.9819 86.1321 72.1737 85.2521 72.5572 84.4893C72.9407 83.7223 73.4819 83.1257 74.1808 82.6996C74.8839 82.2692 75.7148 82.054 76.6737 82.054C77.4705 82.054 78.1758 82.201 78.7894 82.495C79.4073 82.7848 79.8995 83.196 80.266 83.7287C80.6325 84.2571 80.8413 84.875 80.8924 85.5824H78.6808C78.5913 85.1094 78.3782 84.7152 78.0415 84.3999C77.7092 84.0803 77.2638 83.9205 76.7056 83.9205C76.2326 83.9205 75.8171 84.0483 75.4592 84.304C75.1012 84.5554 74.8221 84.9176 74.6218 85.3906C74.4258 85.8636 74.3278 86.4304 74.3278 87.0909C74.3278 87.7599 74.4258 88.3352 74.6218 88.8168C74.8178 89.294 75.0927 89.6626 75.4464 89.9226C75.8043 90.1783 76.2241 90.3061 76.7056 90.3061C77.0465 90.3061 77.3512 90.2422 77.6197 90.1143C77.8924 89.9822 78.1204 89.7926 78.3036 89.5455C78.4869 89.2983 78.6126 88.9979 78.6808 88.6442H80.8924C80.837 89.3388 80.6325 89.9545 80.2788 90.4915C79.9251 91.0241 79.4435 91.4418 78.8342 91.7443C78.2248 92.0426 77.5089 92.1918 76.6864 92.1918ZM90.5524 84.777L88.443 85.0071C88.3833 84.794 88.2789 84.5938 88.1298 84.4062C87.9849 84.2188 87.7889 84.0675 87.5417 83.9524C87.2946 83.8374 86.992 83.7798 86.6341 83.7798C86.1525 83.7798 85.7477 83.8842 85.4196 84.093C85.0957 84.3018 84.9359 84.5724 84.9402 84.9048C84.9359 85.1903 85.0403 85.4226 85.2534 85.6016C85.4707 85.7805 85.8287 85.9276 86.3272 86.0426L88.002 86.4006C88.9309 86.6009 89.6213 86.9183 90.073 87.353C90.5289 87.7876 90.7591 88.3565 90.7633 89.0597C90.7591 89.6776 90.5779 90.223 90.22 90.696C89.8663 91.1648 89.3741 91.5312 88.7434 91.7955C88.1127 92.0597 87.3883 92.1918 86.5701 92.1918C85.3684 92.1918 84.4011 91.9403 83.6681 91.4375C82.9352 90.9304 82.4984 90.2251 82.3578 89.3217L84.6142 89.1044C84.7164 89.5476 84.9338 89.8821 85.2662 90.108C85.5985 90.3338 86.0311 90.4467 86.5637 90.4467C87.1135 90.4467 87.5545 90.3338 87.8869 90.108C88.2235 89.8821 88.3919 89.603 88.3919 89.2706C88.3919 88.9893 88.2832 88.7571 88.0659 88.5739C87.8528 88.3906 87.5204 88.25 87.0687 88.152L85.394 87.8004C84.4522 87.6044 83.7555 87.2741 83.3038 86.8097C82.8521 86.3409 82.6284 85.7486 82.6326 85.0327C82.6284 84.4276 82.7924 83.9034 83.1248 83.4602C83.4615 83.0128 83.9281 82.6676 84.5247 82.4247C85.1255 82.1776 85.818 82.054 86.6021 82.054C87.7527 82.054 88.6582 82.299 89.3187 82.7891C89.9835 83.2791 90.3947 83.9418 90.5524 84.777Z" fill="#353A40"/>
<path d="M24.8608 66V57.2727H28.1335C28.804 57.2727 29.3665 57.3892 29.821 57.6222C30.2784 57.8551 30.6236 58.1818 30.8565 58.6023C31.0923 59.0199 31.2102 59.5071 31.2102 60.0639C31.2102 60.6236 31.0909 61.1094 30.8523 61.5213C30.6165 61.9304 30.2685 62.2472 29.8082 62.4716C29.348 62.6932 28.7827 62.804 28.1122 62.804H25.7812V61.4915H27.8991C28.2912 61.4915 28.6122 61.4375 28.8622 61.3295C29.1122 61.2187 29.2969 61.0582 29.4162 60.848C29.5384 60.6349 29.5994 60.3736 29.5994 60.0639C29.5994 59.7543 29.5384 59.4901 29.4162 59.2713C29.294 59.0497 29.108 58.8821 28.858 58.7685C28.608 58.652 28.2855 58.5938 27.8906 58.5938H26.4418V66H24.8608ZM29.3693 62.0455L31.5298 66H29.7656L27.6435 62.0455H29.3693ZM34.4808 66.1321C34.0661 66.1321 33.6925 66.0582 33.3601 65.9105C33.0305 65.7599 32.7692 65.5384 32.576 65.2457C32.3857 64.9531 32.2905 64.5923 32.2905 64.1634C32.2905 63.794 32.3587 63.4886 32.495 63.2472C32.6314 63.0057 32.8175 62.8125 33.0533 62.6676C33.2891 62.5227 33.5547 62.4134 33.8501 62.3395C34.1484 62.2628 34.4567 62.2074 34.7749 62.1733C35.1584 62.1335 35.4695 62.098 35.7081 62.0668C35.9467 62.0327 36.12 61.9815 36.228 61.9134C36.3388 61.8423 36.3942 61.733 36.3942 61.5852V61.5597C36.3942 61.2386 36.299 60.9901 36.1087 60.8139C35.9183 60.6378 35.6442 60.5497 35.2862 60.5497C34.9084 60.5497 34.6087 60.6321 34.3871 60.7969C34.1683 60.9616 34.0206 61.1562 33.9439 61.3807L32.5036 61.1761C32.6172 60.7784 32.8047 60.446 33.0661 60.179C33.3274 59.9091 33.647 59.7074 34.0249 59.5739C34.4027 59.4375 34.8203 59.3693 35.2777 59.3693C35.593 59.3693 35.907 59.4062 36.2195 59.4801C36.532 59.554 36.8175 59.6761 37.076 59.8466C37.3345 60.0142 37.5419 60.2429 37.6982 60.5327C37.8572 60.8224 37.9368 61.1847 37.9368 61.6193V66H36.4538V65.1009H36.4027C36.3089 65.2827 36.1768 65.4531 36.0064 65.6122C35.8388 65.7685 35.6271 65.8949 35.3714 65.9915C35.1186 66.0852 34.8217 66.1321 34.4808 66.1321ZM34.8814 64.9986C35.1911 64.9986 35.4595 64.9375 35.6868 64.8153C35.9141 64.6903 36.0888 64.5256 36.2109 64.321C36.3359 64.1165 36.3984 63.8935 36.3984 63.652V62.8807C36.3501 62.9205 36.2678 62.9574 36.1513 62.9915C36.0376 63.0256 35.9098 63.0554 35.7678 63.081C35.6257 63.1065 35.4851 63.1293 35.3459 63.1491C35.2067 63.169 35.0859 63.1861 34.9837 63.2003C34.7536 63.2315 34.5476 63.2827 34.3658 63.3537C34.1839 63.4247 34.0405 63.5241 33.9354 63.652C33.8303 63.777 33.7777 63.9389 33.7777 64.1378C33.7777 64.4219 33.8814 64.6364 34.0888 64.7812C34.2962 64.9261 34.5604 64.9986 34.8814 64.9986ZM42.3345 68.5909C41.7805 68.5909 41.3047 68.5156 40.907 68.3651C40.5092 68.2173 40.1896 68.0185 39.9482 67.7685C39.7067 67.5185 39.5391 67.2415 39.4453 66.9375L40.8345 66.6009C40.897 66.7287 40.9879 66.8551 41.1072 66.9801C41.2266 67.108 41.3871 67.2131 41.5888 67.2955C41.7933 67.3807 42.0504 67.4233 42.3601 67.4233C42.7976 67.4233 43.1598 67.3168 43.4467 67.1037C43.7337 66.8935 43.8771 66.5469 43.8771 66.0639V64.8239H43.8004C43.7209 64.983 43.6044 65.1463 43.451 65.3139C43.3004 65.4815 43.1001 65.6222 42.8501 65.7358C42.603 65.8494 42.2919 65.9062 41.9169 65.9062C41.4141 65.9062 40.9581 65.7884 40.549 65.5526C40.1428 65.3139 39.8189 64.9588 39.5774 64.4872C39.3388 64.0128 39.2195 63.419 39.2195 62.706C39.2195 61.9872 39.3388 61.3807 39.5774 60.8864C39.8189 60.3892 40.1442 60.0128 40.5533 59.7571C40.9624 59.4986 41.4183 59.3693 41.9212 59.3693C42.3047 59.3693 42.62 59.4347 42.8672 59.5653C43.1172 59.6932 43.3161 59.848 43.4638 60.0298C43.6115 60.2088 43.7237 60.3778 43.8004 60.5369H43.8857V59.4545H45.407V66.1065C45.407 66.6662 45.2734 67.1293 45.0064 67.4957C44.7393 67.8622 44.3743 68.1364 43.9112 68.3182C43.4482 68.5 42.9226 68.5909 42.3345 68.5909ZM42.3473 64.696C42.674 64.696 42.9524 64.6165 43.1825 64.4574C43.4126 64.2983 43.5874 64.0696 43.7067 63.7713C43.826 63.473 43.8857 63.1151 43.8857 62.6974C43.8857 62.2855 43.826 61.9247 43.7067 61.6151C43.5902 61.3054 43.4169 61.0653 43.1868 60.8949C42.9595 60.7216 42.6797 60.6349 42.3473 60.6349C42.0036 60.6349 41.7166 60.7244 41.4865 60.9034C41.2564 61.0824 41.0831 61.3281 40.9666 61.6406C40.8501 61.9503 40.7919 62.3026 40.7919 62.6974C40.7919 63.098 40.8501 63.4489 40.9666 63.75C41.0859 64.0483 41.2607 64.2812 41.4908 64.4489C41.7237 64.6136 42.0092 64.696 42.3473 64.696ZM48.5305 62.1648V66H46.9879V57.2727H48.4964V60.5668H48.5732C48.7266 60.1974 48.9638 59.9062 49.2848 59.6932C49.6087 59.4773 50.0206 59.3693 50.5206 59.3693C50.9751 59.3693 51.3714 59.4645 51.7095 59.6548C52.0476 59.8452 52.3089 60.1236 52.4936 60.4901C52.6811 60.8565 52.7749 61.304 52.7749 61.8324V66H51.2322V62.071C51.2322 61.6307 51.1186 61.2884 50.8913 61.044C50.6669 60.7969 50.3516 60.6733 49.9453 60.6733C49.6726 60.6733 49.4283 60.733 49.2124 60.8523C48.9993 60.9687 48.8317 61.1378 48.7095 61.3594C48.5902 61.581 48.5305 61.8494 48.5305 62.1648ZM56.2308 66.1321C55.8161 66.1321 55.4425 66.0582 55.1101 65.9105C54.7805 65.7599 54.5192 65.5384 54.326 65.2457C54.1357 64.9531 54.0405 64.5923 54.0405 64.1634C54.0405 63.794 54.1087 63.4886 54.245 63.2472C54.3814 63.0057 54.5675 62.8125 54.8033 62.6676C55.0391 62.5227 55.3047 62.4134 55.6001 62.3395C55.8984 62.2628 56.2067 62.2074 56.5249 62.1733C56.9084 62.1335 57.2195 62.098 57.4581 62.0668C57.6967 62.0327 57.87 61.9815 57.978 61.9134C58.0888 61.8423 58.1442 61.733 58.1442 61.5852V61.5597C58.1442 61.2386 58.049 60.9901 57.8587 60.8139C57.6683 60.6378 57.3942 60.5497 57.0362 60.5497C56.6584 60.5497 56.3587 60.6321 56.1371 60.7969C55.9183 60.9616 55.7706 61.1562 55.6939 61.3807L54.2536 61.1761C54.3672 60.7784 54.5547 60.446 54.8161 60.179C55.0774 59.9091 55.397 59.7074 55.7749 59.5739C56.1527 59.4375 56.5703 59.3693 57.0277 59.3693C57.343 59.3693 57.657 59.4062 57.9695 59.4801C58.282 59.554 58.5675 59.6761 58.826 59.8466C59.0845 60.0142 59.2919 60.2429 59.4482 60.5327C59.6072 60.8224 59.6868 61.1847 59.6868 61.6193V66H58.2038V65.1009H58.1527C58.0589 65.2827 57.9268 65.4531 57.7564 65.6122C57.5888 65.7685 57.3771 65.8949 57.1214 65.9915C56.8686 66.0852 56.5717 66.1321 56.2308 66.1321ZM56.6314 64.9986C56.9411 64.9986 57.2095 64.9375 57.4368 64.8153C57.6641 64.6903 57.8388 64.5256 57.9609 64.321C58.0859 64.1165 58.1484 63.8935 58.1484 63.652V62.8807C58.1001 62.9205 58.0178 62.9574 57.9013 62.9915C57.7876 63.0256 57.6598 63.0554 57.5178 63.081C57.3757 63.1065 57.2351 63.1293 57.0959 63.1491C56.9567 63.169 56.8359 63.1861 56.7337 63.2003C56.5036 63.2315 56.2976 63.2827 56.1158 63.3537C55.9339 63.4247 55.7905 63.5241 55.6854 63.652C55.5803 63.777 55.5277 63.9389 55.5277 64.1378C55.5277 64.4219 55.6314 64.6364 55.8388 64.7812C56.0462 64.9261 56.3104 64.9986 56.6314 64.9986ZM66.8501 59.4545L64.5192 66H62.8146L60.4837 59.4545H62.1286L63.6328 64.3168H63.701L65.2095 59.4545H66.8501ZM75.7053 59.6719C75.6655 59.2997 75.4979 59.0099 75.2024 58.8026C74.9098 58.5952 74.5291 58.4915 74.0604 58.4915C73.7308 58.4915 73.4482 58.5412 73.2124 58.6406C72.9766 58.7401 72.7962 58.875 72.6712 59.0455C72.5462 59.2159 72.4822 59.4105 72.4794 59.6293C72.4794 59.8111 72.5206 59.9687 72.603 60.1023C72.6882 60.2358 72.8033 60.3494 72.9482 60.4432C73.093 60.5341 73.2536 60.6108 73.4297 60.6733C73.6058 60.7358 73.7834 60.7884 73.9624 60.831L74.7805 61.0355C75.1101 61.1122 75.4268 61.2159 75.7308 61.3466C76.0376 61.4773 76.3118 61.642 76.5533 61.8409C76.7976 62.0398 76.9908 62.2798 77.1328 62.5611C77.2749 62.8423 77.3459 63.1719 77.3459 63.5497C77.3459 64.0611 77.2152 64.5114 76.9538 64.9006C76.6925 65.2869 76.3146 65.5895 75.8203 65.8082C75.3288 66.0241 74.7337 66.1321 74.0348 66.1321C73.3558 66.1321 72.7663 66.027 72.2663 65.8168C71.7692 65.6065 71.38 65.2997 71.0987 64.8963C70.8203 64.4929 70.6697 64.0014 70.647 63.4219H72.2024C72.2251 63.7259 72.3189 63.9787 72.4837 64.1804C72.6484 64.3821 72.8629 64.5327 73.1271 64.6321C73.3942 64.7315 73.6925 64.7812 74.022 64.7812C74.3658 64.7812 74.6669 64.7301 74.9254 64.6278C75.1868 64.5227 75.3913 64.3778 75.5391 64.1932C75.6868 64.0057 75.7621 63.7869 75.7649 63.5369C75.7621 63.3097 75.6953 63.1222 75.5646 62.9744C75.4339 62.8239 75.2507 62.6989 75.0149 62.5994C74.782 62.4972 74.5092 62.4062 74.1967 62.3267L73.2038 62.071C72.4851 61.8864 71.9169 61.6065 71.4993 61.2315C71.0845 60.8537 70.8771 60.3523 70.8771 59.7273C70.8771 59.2131 71.0163 58.7628 71.2947 58.3764C71.576 57.9901 71.9581 57.6903 72.4411 57.4773C72.924 57.2614 73.4709 57.1534 74.0817 57.1534C74.701 57.1534 75.2436 57.2614 75.7095 57.4773C76.1783 57.6903 76.5462 57.9872 76.8132 58.3679C77.0803 58.7457 77.218 59.1804 77.2266 59.6719H75.7053ZM78.6871 66V59.4545H80.2298V66H78.6871ZM79.4627 58.5256C79.2184 58.5256 79.0082 58.4446 78.832 58.2827C78.6559 58.1179 78.5678 57.9205 78.5678 57.6903C78.5678 57.4574 78.6559 57.2599 78.832 57.098C79.0082 56.9332 79.2184 56.8509 79.4627 56.8509C79.7099 56.8509 79.9201 56.9332 80.0934 57.098C80.2695 57.2599 80.3576 57.4574 80.3576 57.6903C80.3576 57.9205 80.2695 58.1179 80.0934 58.2827C79.9201 58.4446 79.7099 58.5256 79.4627 58.5256ZM83.3587 62.1648V66H81.8161V59.4545H83.2905V60.5668H83.3672C83.5178 60.2003 83.7578 59.9091 84.0874 59.6932C84.4197 59.4773 84.8303 59.3693 85.3189 59.3693C85.7706 59.3693 86.1641 59.4659 86.4993 59.6591C86.8374 59.8523 87.0987 60.1321 87.2834 60.4986C87.4709 60.8651 87.5632 61.3097 87.5604 61.8324V66H86.0178V62.071C86.0178 61.6335 85.9041 61.2912 85.6768 61.044C85.4524 60.7969 85.1413 60.6733 84.7436 60.6733C84.4737 60.6733 84.2337 60.733 84.0234 60.8523C83.8161 60.9687 83.6527 61.1378 83.5334 61.3594C83.4169 61.581 83.3587 61.8494 83.3587 62.1648ZM91.9751 68.5909C91.4212 68.5909 90.9453 68.5156 90.5476 68.3651C90.1499 68.2173 89.8303 68.0185 89.5888 67.7685C89.3473 67.5185 89.1797 67.2415 89.0859 66.9375L90.4751 66.6009C90.5376 66.7287 90.6286 66.8551 90.7479 66.9801C90.8672 67.108 91.0277 67.2131 91.2294 67.2955C91.4339 67.3807 91.6911 67.4233 92.0007 67.4233C92.4382 67.4233 92.8004 67.3168 93.0874 67.1037C93.3743 66.8935 93.5178 66.5469 93.5178 66.0639V64.8239H93.4411C93.3615 64.983 93.245 65.1463 93.0916 65.3139C92.9411 65.4815 92.7408 65.6222 92.4908 65.7358C92.2436 65.8494 91.9325 65.9062 91.5575 65.9062C91.0547 65.9062 90.5987 65.7884 90.1896 65.5526C89.7834 65.3139 89.4595 64.9588 89.218 64.4872C88.9794 64.0128 88.8601 63.419 88.8601 62.706C88.8601 61.9872 88.9794 61.3807 89.218 60.8864C89.4595 60.3892 89.7848 60.0128 90.1939 59.7571C90.603 59.4986 91.0589 59.3693 91.5618 59.3693C91.9453 59.3693 92.2607 59.4347 92.5078 59.5653C92.7578 59.6932 92.9567 59.848 93.1044 60.0298C93.2521 60.2088 93.3643 60.3778 93.4411 60.5369H93.5263V59.4545H95.0476V66.1065C95.0476 66.6662 94.9141 67.1293 94.647 67.4957C94.38 67.8622 94.0149 68.1364 93.5518 68.3182C93.0888 68.5 92.5632 68.5909 91.9751 68.5909ZM91.9879 64.696C92.3146 64.696 92.593 64.6165 92.8232 64.4574C93.0533 64.2983 93.228 64.0696 93.3473 63.7713C93.4666 63.473 93.5263 63.1151 93.5263 62.6974C93.5263 62.2855 93.4666 61.9247 93.3473 61.6151C93.2308 61.3054 93.0575 61.0653 92.8274 60.8949C92.6001 60.7216 92.3203 60.6349 91.9879 60.6349C91.6442 60.6349 91.3572 60.7244 91.1271 60.9034C90.897 61.0824 90.7237 61.3281 90.6072 61.6406C90.4908 61.9503 90.4325 62.3026 90.4325 62.6974C90.4325 63.098 90.4908 63.4489 90.6072 63.75C90.7266 64.0483 90.9013 64.2812 91.1314 64.4489C91.3643 64.6136 91.6499 64.696 91.9879 64.696ZM98.1712 62.1648V66H96.6286V57.2727H98.1371V60.5668H98.2138C98.3672 60.1974 98.6044 59.9062 98.9254 59.6932C99.2493 59.4773 99.6612 59.3693 100.161 59.3693C100.616 59.3693 101.012 59.4645 101.35 59.6548C101.688 59.8452 101.95 60.1236 102.134 60.4901C102.322 60.8565 102.415 61.304 102.415 61.8324V66H100.873V62.071C100.873 61.6307 100.759 61.2884 100.532 61.044C100.308 60.7969 99.9922 60.6733 99.5859 60.6733C99.3132 60.6733 99.0689 60.733 98.853 60.8523C98.6399 60.9687 98.4723 61.1378 98.3501 61.3594C98.2308 61.581 98.1712 61.8494 98.1712 62.1648Z" fill="#92A9C4"/>
<defs>
<filter id="filter0_d_2049_198" x="0" y="0" width="216" height="135" filterUnits="userSpaceOnUse" color-interpolation-filters="sRGB">
<feFlood flood-opacity="0" result="BackgroundImageFix"/>
<feColorMatrix in="SourceAlpha" type="matrix" values="0 0 0 0 0 0 0 0 0 0 0 0 0 0 0 0 0 0 127 0" result="hardAlpha"/>
<feOffset dy="12"/>
<feGaussianBlur stdDeviation="6"/>
<feComposite in2="hardAlpha" operator="out"/>
<feColorMatrix type="matrix" values="0 0 0 0 0.0547778 0 0 0 0 0.468205 0 0 0 0 0.911889 0 0 0 0.2 0"/>
<feBlend mode="normal" in2="BackgroundImageFix" result="effect1_dropShadow_2049_198"/>
<feBlend mode="normal" in="SourceGraphic" in2="effect1_dropShadow_2049_198" result="shape"/>
</filter>
</defs>
</svg>
