<svg width="216" height="135" viewBox="0 0 216 135" fill="none" xmlns="http://www.w3.org/2000/svg">
<g filter="url(#filter0_d_2236_496)">
<path d="M191.315 14.4835H148.654C145.7 14.4835 142.896 13.1768 140.996 10.914L132.366 0.636062C132.019 0.21824 131.499 -0.0160796 130.956 0.000859061H24.6846C17.6531 0.0707312 11.9919 5.80343 12 12.846V98.1689C11.9997 105.206 17.6587 110.93 24.6846 111H191.315C198.341 110.93 204 105.206 204 98.1689V27.3145C204 20.2776 198.341 14.5533 191.315 14.4835Z" fill="white"/>
<path d="M131.906 1.02189L131.904 1.01945C131.675 0.743772 131.332 0.589408 130.975 0.600567L130.966 0.600859H130.956H24.6876C17.9876 0.669023 12.5923 6.1322 12.6 12.8454L12.6 12.846L12.6 98.169C12.5997 104.877 17.993 110.332 24.6875 110.4L131.906 1.02189ZM131.906 1.02189L140.537 11.2998C142.551 13.6984 145.522 15.0835 148.654 15.0835H191.312L131.906 1.02189Z" stroke="#353A40" stroke-opacity="0.1" stroke-width="1.2"/>
</g>
<defs>
<filter id="filter0_d_2236_496" x="0" y="0" width="216" height="135" filterUnits="userSpaceOnUse" color-interpolation-filters="sRGB">
<feFlood flood-opacity="0" result="BackgroundImageFix"/>
<feColorMatrix in="SourceAlpha" type="matrix" values="0 0 0 0 0 0 0 0 0 0 0 0 0 0 0 0 0 0 127 0" result="hardAlpha"/>
<feOffset dy="12"/>
<feGaussianBlur stdDeviation="6"/>
<feComposite in2="hardAlpha" operator="out"/>
<feColorMatrix type="matrix" values="0 0 0 0 0.0547778 0 0 0 0 0.468205 0 0 0 0 0.911889 0 0 0 0.2 0"/>
<feBlend mode="normal" in2="BackgroundImageFix" result="effect1_dropShadow_2236_496"/>
<feBlend mode="normal" in="SourceGraphic" in2="effect1_dropShadow_2236_496" result="shape"/>
</filter>
</defs>
</svg>
