<?xml version="1.0" encoding="UTF-8"?>
<svg version="1.1" xmlns="http://www.w3.org/2000/svg" width="500" height="500">
<path d="M0 0 C165 0 330 0 500 0 C500 165 500 330 500 500 C335 500 170 500 0 500 C0 335 0 170 0 0 Z " fill="#FEFEFF" transform="translate(0,0)"/>
<path d="M0 0 C3.95511565 3.8324764 6.07308998 7.07831659 6.31640625 12.5703125 C6.35830078 13.46621094 6.40019531 14.36210937 6.44335938 15.28515625 C6.48267578 16.22230469 6.52199219 17.15945312 6.5625 18.125 C6.60568359 19.06988281 6.64886719 20.01476562 6.69335938 20.98828125 C6.79959072 23.32537092 6.90163176 25.6625683 7 28 C7.61568848 27.67547852 8.23137695 27.35095703 8.86572266 27.01660156 C12.44960843 25.30952076 16.1078049 25.62770308 20 26 C21.6396875 26.5878125 21.6396875 26.5878125 23.3125 27.1875 C24.199375 27.455625 25.08625 27.72375 26 28 C27.35917857 27.03542166 28.69084721 26.03145371 30 25 C34.3712061 24.43336217 36.45004957 24.6887073 40.3125 26.875 C43 29 43 29 45 31 C48.60863328 30.60921738 51.73375364 29.39941114 55.0625 28 C65.22490547 23.74087167 73.88670514 24.17847715 84.2734375 27.83203125 C87 29 87 29 89.5390625 30.76171875 C91.92717677 32.30606031 91.92717677 32.30606031 94.40234375 31.3515625 C95.25957031 30.90554687 96.11679687 30.45953125 97 30 C108.72046313 25.17134478 117.69418649 22.80807254 129.875 27.25 C134.28442094 29.1079913 138.21336503 31.0788816 142 34 C142.3403125 33.13375 142.3403125 33.13375 142.6875 32.25 C144.66629537 28.85777937 147.50986942 26.74506529 151 25 C156.95701945 24.44286868 161.95208399 24.47819814 167 28 C171.78303533 32.75704057 173.11856471 36.50856074 173.17700195 43.18041992 C173.18983719 44.45572067 173.20267242 45.73102142 173.21589661 47.04496765 C173.22406621 48.44013072 173.23150952 49.8352982 173.23828125 51.23046875 C173.24235678 51.93484888 173.2464323 52.63922901 173.25063133 53.36495399 C173.27147993 57.0959201 173.28578476 60.8268496 173.29516602 64.55786133 C173.30620585 68.39668482 173.34058023 72.23492473 173.38033772 76.07354259 C173.40658804 79.03769447 173.41486542 82.00170931 173.41844749 84.96596718 C173.4232947 86.38005816 173.43485513 87.79414379 173.45348549 89.20812035 C173.56199229 97.99196281 173.6258212 105.24540862 167.17578125 111.875 C162.16662202 114.89939803 157.84346932 116.04347666 152 115 C150.66567608 114.3353182 149.33223504 113.66885874 148 113 C145.34508736 113.31606103 143.38794754 113.80602623 141 115 C135.1247143 115.85325726 130.94360841 114.96529749 125.921875 111.875 C121.05425828 107.12610564 118.45212124 102.19285763 118.33235168 95.37687683 C118.34766182 94.20612358 118.34766182 94.20612358 118.36328125 93.01171875 C118.35290329 92.18670364 118.34252533 91.36168854 118.33183289 90.51167297 C118.30236878 87.90318054 118.30549989 85.29612736 118.3125 82.6875 C118.30359968 80.06142398 118.28766585 77.43572533 118.2610321 74.80976868 C118.24613921 73.18270721 118.24230079 71.55549789 118.25080872 69.9283905 C118.23129178 66.08518765 118.18351774 64.27527661 116 61 C113.04279372 60.33319632 113.04279372 60.33319632 110 61 C106.6357262 65.08258372 106.57312424 69.08112333 106.59375 74.15234375 C106.57749573 75.31897301 106.57749573 75.31897301 106.56091309 76.50917053 C106.52676445 78.98536547 106.5110844 81.46110099 106.5 83.9375 C106.4853789 87.19705282 106.45160436 90.45558945 106.40625 93.71484375 C106.40927124 94.45564682 106.41229248 95.19644989 106.41540527 95.95970154 C106.33759809 101.37834427 105.23184222 105.54794934 101.53515625 109.609375 C96.55654816 113.46548524 93.57890824 115.5055995 87.0859375 115.3125 C82.02447245 114.55422808 78.41692025 111.71990694 75.125 107.9375 C71.75003076 103.27210134 71.84091368 99.30237589 71.7890625 93.75390625 C71.76099978 92.09569315 71.73233536 90.43749015 71.703125 88.77929688 C71.66183404 86.16788961 71.62494129 83.55667204 71.59863281 80.94506836 C71.57102606 78.42262022 71.52516418 75.90102554 71.4765625 73.37890625 C71.4716832 72.20999596 71.4716832 72.20999596 71.46670532 71.01747131 C71.39373246 67.79848066 71.19364734 65.37379541 69.70068359 62.49194336 C67.91313087 60.61927708 67.91313087 60.61927708 64.3125 60.75 C63.219375 60.8325 62.12625 60.915 61 61 C59.73167301 64.80498096 59.84502026 68.39436023 59.82421875 72.359375 C59.80101332 74.04949152 59.7768957 75.73959572 59.75195312 77.4296875 C59.71691114 80.08699715 59.68753112 82.74385509 59.67407227 85.40136719 C59.65851893 87.97125714 59.61825932 90.5398353 59.57421875 93.109375 C59.57612717 93.89503845 59.57803558 94.6807019 59.58000183 95.49017334 C59.4569089 101.09268692 58.18038013 104.36693501 55 109 C50.01658097 113.60966261 46.03145983 115.43215737 39.3125 115.34375 C36.7886158 114.96857802 35.32499264 114.23857289 33.1875 112.875 C32.135625 112.25625 31.08375 111.6375 30 111 C27.83572704 111.45599341 27.83572704 111.45599341 26 113 C20.70705788 116.27658321 16.085542 116.7929045 10 116 C7.98529902 115.02995879 5.98077953 114.03755118 4 113 C2.00016466 113.79117904 2.00016466 113.79117904 0 115 C-4.2237944 115.46931049 -6.45327135 115.28387834 -10.25 113.3125 C-12.95607573 111.03693632 -14.42999318 109.14001365 -16 106 C-18.84611724 107.38772308 -21.57725674 108.90646574 -24.3125 110.5 C-33.22707845 115.39796125 -42.20680943 116.38857139 -52.19140625 114.34765625 C-62.72369763 111.21352612 -71.63350375 104.53688956 -77.18359375 94.95703125 C-78.18882489 92.99443713 -79.1140854 91.01886309 -80 89 C-80.61875 87.63875 -80.61875 87.63875 -81.25 86.25 C-82 84 -82 84 -82 80 C-96.85 80 -111.7 80 -127 80 C-124.49943407 84.97621743 -124.49943407 84.97621743 -121 87 C-117.11200647 86.74916171 -114.0261814 86.42548985 -110.4375 84.9375 C-105.40812082 83.00312339 -101.1792544 83.71362753 -96.3125 85.6875 C-91.79389491 87.85058012 -89.24742104 90.50515791 -87 95 C-86.8707132 99.61738561 -87.55681954 103.20533159 -89.8125 107.25 C-95.16102288 112.84801666 -104.47989717 115.59713735 -112 116 C-112.88042969 116.05027344 -113.76085937 116.10054688 -114.66796875 116.15234375 C-126.66568278 116.54036814 -136.10515982 113.76439295 -146 107 C-146.83144531 107.74056641 -146.83144531 107.74056641 -147.6796875 108.49609375 C-148.40414062 109.13675781 -149.12859375 109.77742188 -149.875 110.4375 C-150.59429687 111.07558594 -151.31359375 111.71367187 -152.0546875 112.37109375 C-155.92423959 115.61126086 -159.34736145 115.34222873 -164.25 115.265625 C-169.02180761 114.80471177 -171.43472142 112.74528562 -174.5625 109.2578125 C-178.50016932 104.4268756 -181.95175853 99.22398397 -185.4375 94.0625 C-185.88706055 93.39951904 -186.33662109 92.73653809 -186.79980469 92.0534668 C-190 87.24013967 -190 87.24013967 -190 85 C-191.7015625 85.9590625 -191.7015625 85.9590625 -193.4375 86.9375 C-194.07558594 87.29714844 -194.71367187 87.65679687 -195.37109375 88.02734375 C-196.97878146 88.8972513 -196.97878146 88.8972513 -198 90 C-198.13336527 91.85229545 -198.23122855 93.70718879 -198.3125 95.5625 C-198.85340379 102.56096291 -200.36861316 107.43608461 -205.4375 112.375 C-210.50286427 115.58718222 -214.95906077 116.8307775 -221 116 C-223.01526169 115.03112419 -225.01833966 114.0358679 -227 113 C-229.43954149 113.2217765 -231.03552611 114.01677622 -233.25 115.0625 C-237.54239892 116.52581781 -241.62034586 116.86354459 -245.89453125 115.3125 C-252.16174714 112.03552437 -255.37321864 107.5669534 -258 101 C-267.9 101 -277.8 101 -288 101 C-289.65 103.97 -291.3 106.94 -293 110 C-297.21602735 114.11062666 -300.95179352 115.7269058 -306.75 116.5 C-312.1741171 116.34590576 -316.04695077 113.51036985 -320 110 C-323.66686806 105.8710869 -324.35909597 101.78676185 -324.26104736 96.44894409 C-323.80987113 92.21635825 -322.23235957 88.57259333 -320.5546875 84.69140625 C-320.19275803 83.81898285 -319.83082855 82.94655945 -319.45793152 82.04769897 C-318.27809355 79.2129983 -317.07655827 76.3880531 -315.875 73.5625 C-315.05362223 71.59711802 -314.23389458 69.63104566 -313.41577148 67.66430664 C-311.35204481 62.71110397 -309.27216326 57.76488121 -307.18756104 52.82043457 C-304.42189372 46.25202801 -301.6833141 39.67241931 -298.95635986 33.08786011 C-298.08733356 30.99724214 -297.2091245 28.91067735 -296.32958984 26.82446289 C-293.62933114 20.36410549 -291.25879828 14.03622094 -289.73608398 7.1862793 C-288.47275566 3.43400562 -286.30219917 2.06387448 -283 0 C-277.75021405 -1.74992865 -272.00386581 -2.00470597 -266.7109375 -0.234375 C-257.79481188 4.65400275 -254.12239974 15.44752531 -250.546875 24.42578125 C-250.16057922 25.37639938 -249.77428345 26.32701752 -249.37628174 27.30644226 C-248.1597125 30.30537207 -246.95467965 33.30877727 -245.75 36.3125 C-244.92784441 38.34470911 -244.10493388 40.37661297 -243.28125 42.40820312 C-240.50408246 49.26544309 -237.7468166 56.13055265 -235 63 C-234.99120064 62.04279556 -234.99120064 62.04279556 -234.98222351 61.06625366 C-234.91820972 54.41481016 -234.83376899 47.76384691 -234.73754883 41.11279297 C-234.70432764 38.63173765 -234.67628702 36.15060727 -234.65356445 33.66943359 C-234.6199678 30.09960999 -234.56764717 26.53047255 -234.51171875 22.9609375 C-234.50532883 21.85446869 -234.4989389 20.74799988 -234.49235535 19.60800171 C-234.3676496 13.05192479 -233.91579908 8.16099127 -229.28125 3.13671875 C-228.6934375 2.65847656 -228.105625 2.18023437 -227.5 1.6875 C-226.9121875 1.19636719 -226.324375 0.70523438 -225.71875 0.19921875 C-221.85297295 -2.49803933 -217.53454163 -2.5749151 -213 -2 C-207.09803416 -0.10138966 -203.52313779 2.98219769 -200 8 C-198.75526468 11.73420597 -198.76790215 15.27365238 -198.68359375 19.16796875 C-198.66281265 19.96278152 -198.64203156 20.7575943 -198.62062073 21.57649231 C-198.55527913 24.11340763 -198.49631192 26.65042573 -198.4375 29.1875 C-198.39430014 30.90821372 -198.35068537 32.62891708 -198.30664062 34.34960938 C-198.19961352 38.56630113 -198.09830276 42.7830962 -198 47 C-197.50709473 46.64284912 -197.01418945 46.28569824 -196.50634766 45.91772461 C-195.81589355 45.41764893 -195.12543945 44.91757324 -194.4140625 44.40234375 C-193.65295166 43.8508667 -192.89184082 43.29938965 -192.10766602 42.73120117 C-190.44668158 41.53115666 -188.7830814 40.33472464 -187.11694336 39.1418457 C-183.67807956 36.67818712 -180.2722143 34.21721089 -176.96484375 31.578125 C-171.80837287 27.52002434 -168.10177556 26.0932949 -161.47265625 26.578125 C-154.89900591 27.69969567 -151.37658952 31.31079695 -147 36 C-146.3709375 35.60167969 -145.741875 35.20335937 -145.09375 34.79296875 C-132.73684485 27.14434222 -121.43433501 23.91188142 -106.9375 27.125 C-96.02790792 30.20133406 -88.57196074 35.71816794 -81 44 C-80.0055647 45.00553391 -79.00784277 46.00790477 -78 47 C-77.6596875 46.43152344 -77.319375 45.86304688 -76.96875 45.27734375 C-70.52131332 35.0060284 -62.6730009 28.95459366 -50.9921875 25.38671875 C-42.49473429 23.73721313 -35.69488486 25.39062665 -28 29 C-28.02094727 28.39526855 -28.04189453 27.79053711 -28.06347656 27.16748047 C-28.14708945 24.40349229 -28.19880054 21.63977087 -28.25 18.875 C-28.28351563 17.92367187 -28.31703125 16.97234375 -28.3515625 15.9921875 C-28.43328586 10.10810569 -28.02058034 6.62953685 -24 2 C-16.90696702 -4.56105551 -8.3270052 -4.71339917 0 0 Z " fill="#067EFE" transform="translate(327,179)"/>
<path d="M0 0 C2.18447876 1.53256226 2.18447876 1.53256226 4 4 C4.3844116 6.81311093 4.52747109 9.23156236 4.48583984 12.04150391 C4.48963654 12.84842178 4.49343323 13.65533966 4.49734497 14.48670959 C4.50474685 17.15039089 4.48337739 19.8129784 4.4609375 22.4765625 C4.4585532 24.32693351 4.45764772 26.17730697 4.4581604 28.02767944 C4.45503325 31.9030475 4.43847183 35.77804536 4.41162109 39.65332031 C4.37759387 44.62812038 4.36999388 49.60251456 4.37151146 54.57741737 C4.3709685 58.39661556 4.36001413 62.21572448 4.34550858 66.03489304 C4.33913216 67.86976826 4.33519972 69.70465363 4.33372116 71.53953934 C4.32939974 74.09896454 4.31192555 76.65795326 4.29052734 79.21728516 C4.29143372 79.97992172 4.29234009 80.74255829 4.29327393 81.52830505 C4.22895986 86.77104014 4.22895986 86.77104014 2 89 C-0.75965374 89.35380176 -2.34119108 89.43920595 -4.6875 87.875 C-6.41654062 85.40494197 -7.16764025 82.88124528 -8 80 C-10.38965062 81.39396286 -12.67799999 82.73351723 -14.8125 84.5 C-21.6811244 89.20991387 -28.87283143 90.0460712 -37 89 C-46.43707368 86.47721793 -53.54457812 81.82238587 -58.5625 73.3671875 C-63.13012539 64.46550847 -64.27338478 55.9122952 -63 46 C-60.83352414 39.27520077 -57.50818772 33.51953864 -52 29 C-50.88625 27.9790625 -50.88625 27.9790625 -49.75 26.9375 C-41.92386347 21.42363108 -34.58804422 19.62034188 -25 21 C-20.22454322 22.71410435 -16.20280444 25.19813037 -12 28 C-12.02618408 27.3294458 -12.05236816 26.6588916 -12.0793457 25.96801758 C-12.18357238 22.91641872 -12.24840623 19.86519458 -12.3125 16.8125 C-12.35439453 15.75740234 -12.39628906 14.70230469 -12.43945312 13.61523438 C-12.56295719 5.78507636 -12.56295719 5.78507636 -9.703125 1.796875 C-6.16267547 -0.55660301 -4.17154921 -0.68261714 0 0 Z " fill="#EEF0F2" transform="translate(319,194)"/>
<path d="M0 0 C3.1875 0.3125 3.1875 0.3125 5.4375 2.125 C7.1875 4.3125 7.1875 4.3125 9.1875 7.3125 C9.79078125 6.89097656 10.3940625 6.46945313 11.015625 6.03515625 C11.81484375 5.48730469 12.6140625 4.93945312 13.4375 4.375 C14.22640625 3.82972656 15.0153125 3.28445312 15.828125 2.72265625 C22.10309683 -1.02778221 30.60972071 -0.56016229 37.60546875 0.7734375 C42.68495631 2.44367519 45.66853762 5.35366732 49.1875 9.3125 C49.76757812 8.83039063 50.34765625 8.34828125 50.9453125 7.8515625 C51.72648437 7.21992188 52.50765625 6.58828125 53.3125 5.9375 C54.46105469 4.99777344 54.46105469 4.99777344 55.6328125 4.0390625 C62.30128451 -0.46776415 69.41589675 -0.2955472 77.1875 0.3125 C84.21067945 1.74854947 88.0953894 5.54353009 92.3125 11.125 C96.51059275 18.26175768 97.65439424 24.1831276 97.65625 32.32421875 C97.66767029 33.72109673 97.66767029 33.72109673 97.67932129 35.14619446 C97.69006593 37.10174899 97.69299851 39.05736064 97.68847656 41.01293945 C97.68749921 44.00242939 97.72928863 46.98939212 97.7734375 49.97851562 C97.77864155 51.88541134 97.78133274 53.79231593 97.78125 55.69921875 C97.79764526 56.5888884 97.81404053 57.47855804 97.83093262 58.39518738 C97.78123656 62.85290796 97.63187083 64.73344196 94.83789062 68.37426758 C92.1875 70.3125 92.1875 70.3125 89.1875 70.9375 C85.07471703 70.08067022 83.76994896 68.60494117 81.1875 65.3125 C80.7279518 62.28279529 80.55735229 59.81086292 80.62109375 56.79296875 C80.61545914 55.97556717 80.60982452 55.15816559 80.60401917 54.31599426 C80.5876022 51.71007602 80.60306557 49.10585832 80.625 46.5 C80.64166398 43.90500792 80.65057855 41.31115185 80.63526917 38.71614075 C80.6260841 37.10553077 80.63483266 35.49467858 80.66490173 33.88432312 C80.63861595 28.42150216 79.57046134 23.72737911 76.1875 19.3125 C72.40250881 16.91385501 68.56269975 16.61525701 64.1875 17.3125 C59.8215589 19.83504375 58.0742445 22.70876369 56.1875 27.3125 C55.7884896 30.15302805 55.79327431 32.95162033 55.81640625 35.81640625 C55.7990326 37.46028863 55.78144813 39.1041688 55.76367188 40.74804688 C55.75358722 43.31766737 55.75000804 45.8871476 55.75170898 48.45678711 C55.74813509 50.95207923 55.7207918 53.44630447 55.69140625 55.94140625 C55.69958878 56.70610733 55.7077713 57.47080841 55.71620178 58.25868225 C55.66516927 61.92521331 55.30635287 64.11905461 53.37084961 67.26928711 C50.33537318 70.10993367 48.30558991 70.38474719 44.1875 70.3125 C41.38560554 68.54608828 39.67225089 67.28200178 38.1875 64.3125 C38.06662206 61.4675647 38.00178312 58.64294323 37.9765625 55.796875 C37.94848427 54.05337618 37.91981974 52.30988673 37.890625 50.56640625 C37.84943387 47.81689816 37.81254864 45.06756303 37.78613281 42.31787109 C37.75843063 39.66467083 37.71254933 37.01226617 37.6640625 34.359375 C37.66080963 33.54353943 37.65755676 32.72770386 37.65420532 31.887146 C37.54904257 26.97447923 36.86124743 23.58950162 34.1875 19.3125 C31.21371665 16.88941727 27.90977426 16.9475536 24.1484375 17.06640625 C21.15169323 17.44249169 19.47348544 18.35308391 17.1875 20.3125 C14.19620489 25.11015898 13.7716559 29.26191863 13.81640625 34.78125 C13.79902931 36.42057506 13.78144487 38.05989793 13.76367188 39.69921875 C13.75359792 42.25996885 13.75000537 44.82057854 13.75170898 47.38134766 C13.74812826 49.86923284 13.72075648 52.35605499 13.69140625 54.84375 C13.69958878 55.60328979 13.7077713 56.36282959 13.71620178 57.14538574 C13.64458105 62.29057914 12.56914616 65.22060956 9.1875 69.3125 C6.29888291 70.75680855 4.39102299 70.68938506 1.1875 70.3125 C-1.9665579 67.7992451 -3.61497704 66.2949891 -4.42050171 62.28826904 C-4.41241486 61.16543518 -4.404328 60.04260132 -4.39599609 58.88574219 C-4.40027115 56.96915802 -4.40027115 56.96915802 -4.40463257 55.01385498 C-4.38241756 53.62901719 -4.35950276 52.24419047 -4.3359375 50.859375 C-4.32914467 49.43402927 -4.32442453 48.00867228 -4.32168579 46.58331299 C-4.31102978 43.60403594 -4.28438485 40.62551355 -4.24462891 37.64648438 C-4.19357758 33.82069822 -4.16858572 29.99534397 -4.15369225 26.16926193 C-4.13893667 22.52423938 -4.11370081 18.879319 -4.0859375 15.234375 C-4.08102673 14.53595238 -4.07611595 13.83752975 -4.07105637 13.11794281 C-4.05484746 11.15246665 -4.03032523 9.18706427 -4.00537109 7.22167969 C-3.99251068 6.1020282 -3.97965027 4.98237671 -3.96640015 3.82879639 C-3.74894876 0.27342523 -3.57201136 0.39689015 0 0 Z " fill="#EEF0F2" transform="translate(368.8125,211.6875)"/>
<path d="M0 0 C3.81363217 3.22713217 5.94258667 6.33889251 7.93188477 10.88720703 C8.43688507 12.03481506 8.94188538 13.1824231 9.46218872 14.36480713 C12.05431307 20.49226377 14.60746469 26.63211844 17.08984375 32.8046875 C17.36140352 33.47907993 17.63296329 34.15347237 17.91275215 34.84830093 C19.34242805 38.40136718 20.76734347 41.95630175 22.1887207 45.51269531 C23.35791802 48.4354427 24.53671534 51.35403534 25.72387695 54.26953125 C27.17181519 57.82548532 28.60359028 61.38754122 30.02395821 64.95459366 C30.56345939 66.30194476 31.1084652 67.64710607 31.65922356 68.98989487 C32.42613651 70.86317901 33.17044876 72.74566717 33.91381836 74.62841797 C34.5561869 76.2250679 34.5561869 76.2250679 35.21153259 77.85397339 C36.15445489 81.61628316 35.88066891 84.24050494 35 88 C32.875 90.5 32.875 90.5 30 92 C26.4375 92 26.4375 92 23 91 C19 87 19 87 14 74 C3.11 74 -7.78 74 -19 74 C-20.65 78.29 -22.3 82.58 -24 87 C-26.77694895 90.87311301 -27.8552788 91.77514405 -32.5 92.6875 C-36.25037085 91.95082001 -37.95354128 90.95623656 -40.20063972 87.82920742 C-42.03862297 83.62327838 -40.18826708 78.57827499 -38.83694458 74.42759705 C-38.35079681 73.22293289 -37.86464905 72.01826874 -37.36376953 70.77709961 C-37.09534241 70.10442551 -36.82691528 69.4317514 -36.550354 68.73869324 C-35.67017022 66.53950504 -34.77668255 64.34600046 -33.8828125 62.15234375 C-33.26285431 60.61145436 -32.64371706 59.07023444 -32.02536011 57.52870178 C-30.40083559 53.4854771 -28.76483634 49.44699254 -27.12646484 45.40936279 C-25.46630062 41.31166711 -23.81783282 37.20927269 -22.16796875 33.10742188 C-19.74935228 27.10047465 -17.32743983 21.09487823 -14.89501953 15.09350586 C-14.40728058 13.8896373 -13.91954163 12.68576874 -13.41702271 11.44541931 C-12.71559647 9.73993675 -12.71559647 9.73993675 -12 8 C-11.74382778 7.35293154 -11.48765556 6.70586308 -11.22372055 6.03918648 C-8.70078784 -0.17392247 -6.70050827 -0.68140762 0 0 Z " fill="#EDEFF2" transform="translate(57,192)"/>
<path d="M0 0 C7.19320058 4.95802526 12.97543799 12.00111334 14.82421875 20.6796875 C15.23789002 24.39762188 15.57897779 28.00098007 14.82421875 31.6796875 C11.90806348 34.43140393 9.9275512 35.05155591 5.96386719 35.02026367 C5.00317322 35.02003708 4.04247925 35.01981049 3.05267334 35.01957703 C2.02337708 35.00409317 0.99408081 34.98860931 -0.06640625 34.97265625 C-1.6560318 34.96628899 -1.6560318 34.96628899 -3.277771 34.95979309 C-6.66070012 34.9430078 -10.04303234 34.90535505 -13.42578125 34.8671875 C-15.72004348 34.85214051 -18.01431505 34.83845213 -20.30859375 34.82617188 C-25.93119305 34.79310478 -31.5534445 34.74290653 -37.17578125 34.6796875 C-36.71680502 35.97199802 -36.25136983 37.26201585 -35.78320312 38.55102539 C-35.52470581 39.26964249 -35.2662085 39.98825958 -34.99987793 40.72865295 C-33.97443257 43.15637699 -32.75229609 44.50971 -30.67578125 46.1171875 C-30.08796875 46.59027344 -29.50015625 47.06335938 -28.89453125 47.55078125 C-24.99172541 50.11421509 -20.68962091 50.30480558 -16.17578125 49.6796875 C-14.16612347 48.81013363 -14.16612347 48.81013363 -12.23828125 47.6796875 C-7.9165148 45.29291313 -4.03981822 44.74502942 0.82421875 45.6796875 C3.44921875 47.3046875 3.44921875 47.3046875 4.82421875 49.6796875 C4.94921875 52.6171875 4.94921875 52.6171875 3.82421875 55.6796875 C-2.91867603 62.58312739 -10.89278582 64.55598287 -20.30078125 65.0546875 C-29.76057393 64.9388533 -37.83602361 60.84945365 -44.56640625 54.35546875 C-45.0975 53.80246094 -45.62859375 53.24945313 -46.17578125 52.6796875 C-46.91828125 51.9165625 -47.66078125 51.1534375 -48.42578125 50.3671875 C-53.69038244 42.28226425 -56.12974532 33.25963659 -55.17578125 23.6796875 C-52.75751806 13.71644317 -47.82099811 5.83769008 -39.3515625 0 C-26.7036625 -7.67502729 -12.6479 -7.67502729 0 0 Z " fill="#EBEFF2" transform="translate(228.17578125,219.3203125)"/>
<path d="M0 0 C2.85692452 2.04209281 4.71188722 3.66798151 5.47402954 7.19155884 C5.67545345 9.91524108 5.71823669 12.60090251 5.70703125 15.33203125 C5.72215256 16.32377853 5.73727386 17.31552582 5.75285339 18.33732605 C5.79574202 21.49594845 5.80456975 24.65361539 5.8125 27.8125 C5.83564332 29.95770771 5.86100831 32.10289269 5.88867188 34.24804688 C5.95153526 39.49870697 5.98646044 44.74899352 6 50 C8.13679117 48.32170671 10.27349943 46.64330807 12.41015625 44.96484375 C13.04961685 44.46258774 13.68907745 43.96033173 14.34791565 43.44285583 C17.92213772 40.63489763 21.49252362 37.82221581 25.05859375 35.00390625 C26.51805397 33.85654795 27.97768302 32.70940435 29.4375 31.5625 C30.17419922 30.97791016 30.91089844 30.39332031 31.66992188 29.79101562 C42.89016492 21 42.89016492 21 48.75 21 C52 22 52 22 54 23.625 C55.49183579 27.16810999 55.03014411 29.33011162 54 33 C50.71514011 36.60462502 47.07477536 39.71747675 43.3125 42.8125 C42.35988281 43.60269531 41.40726563 44.39289063 40.42578125 45.20703125 C38 47 38 47 36 47 C38.95580202 53.1893782 42.35399443 58.92225269 46.0625 64.6875 C47.6081793 67.10674226 49.15267124 69.52670581 50.69360352 71.94897461 C51.73832794 73.58917828 52.78990239 75.22501812 53.84375 76.859375 C55.5699813 80.05523565 55.45305877 82.44025255 55 86 C53.4375 88.4375 53.4375 88.4375 51 90 C47.5625 90.5625 47.5625 90.5625 44 90 C40.19702094 86.69552614 37.61129352 83.11457386 35.01171875 78.82421875 C34.66365677 78.25419632 34.31559479 77.68417389 33.95698547 77.09687805 C32.86046669 75.2977179 31.773867 73.49280408 30.6875 71.6875 C29.94010434 70.45728642 29.19206324 69.22746473 28.44335938 67.99804688 C26.62142904 65.00318785 24.80833696 62.00309131 23 59 C20.66159579 60.32509572 18.32931141 61.65911744 16 63 C15.06414062 63.53238281 14.12828125 64.06476563 13.1640625 64.61328125 C10.2615687 66.55571941 8.14828674 68.22788384 6 71 C5.21058297 75.08008475 5.11499217 78.45918427 5.2578125 82.609375 C5 86 5 86 3.20703125 88.38671875 C0.06163735 90.68591818 -2.11909425 91.06808607 -6 91 C-9.60768276 88.30732174 -10.8635345 86.79254608 -11.63491821 82.31260681 C-11.66445549 80.86486887 -11.66670931 79.41641057 -11.64697266 77.96850586 C-11.66011505 76.77735924 -11.66011505 76.77735924 -11.67352295 75.56214905 C-11.69547176 72.9458195 -11.68098279 70.33118947 -11.6640625 67.71484375 C-11.66743163 65.89310889 -11.67228505 64.07137622 -11.67855835 62.24964905 C-11.68592323 58.4356644 -11.67523553 54.62226601 -11.65185547 50.80834961 C-11.62334737 45.91971989 -11.63978653 41.03246139 -11.66971779 36.1438818 C-11.68778404 32.38372968 -11.68203624 28.62390283 -11.66907883 24.86374092 C-11.66574399 23.06121216 -11.66983466 21.25865384 -11.68147659 19.45615959 C-11.69417696 16.93734344 -11.67482339 14.42075011 -11.64697266 11.90209961 C-11.65709381 11.15757538 -11.66721497 10.41305115 -11.67764282 9.64596558 C-11.60040087 5.8754826 -11.29477277 4.30802591 -8.64706421 1.54127502 C-5.36575508 -0.36929435 -3.73623669 -0.70054438 0 0 Z " fill="#EFF0F2" transform="translate(113,191)"/>
<path d="M0 0 C4.41854291 3.11306432 8.02390999 6.75922996 9.75 11.9375 C10.53252755 18.44145852 9.57658965 23.56623195 5.75 28.9375 C1.86503609 33.02533409 -1.83676032 35.0618854 -7.5 35.25 C-12.53987188 35.18444069 -15.17926195 33.89078055 -19.25 30.9375 C-23.41250121 26.54999872 -25.31910052 22.57852302 -25.625 16.5625 C-25.47844673 11.04843309 -23.63090669 7.28196424 -19.71875 3.4296875 C-13.6341908 -1.78990986 -7.63916665 -2.49741987 0 0 Z " fill="#097FFE" transform="translate(297.25,232.0625)"/>
<path d="M0 0 C4.09983583 0.58569083 4.99307614 1.30074871 7.5 4.5 C8.00793457 7.08007812 8.00793457 7.08007812 8.01757812 10.03125 C8.03018677 11.13919922 8.04279541 12.24714844 8.05578613 13.38867188 C8.04768921 14.58041016 8.03959229 15.77214844 8.03125 17 C8.0350769 18.22783203 8.03890381 19.45566406 8.04284668 20.72070312 C8.04556842 23.31641459 8.03818911 25.91215336 8.02148438 28.5078125 C8.00008075 32.48499599 8.02127963 36.46037282 8.046875 40.4375 C8.04423177 42.95833733 8.03910691 45.47917353 8.03125 48 C8.03934692 49.19173828 8.04744385 50.38347656 8.05578613 51.61132812 C8.04317749 52.71927734 8.03056885 53.82722656 8.01757812 54.96875 C8.01439575 55.94263672 8.01121338 56.91652344 8.00793457 57.91992188 C7.35135749 61.25503677 6.16460776 62.44579287 3.5 64.5 C0 65 0 65 -3.5 64.5 C-6.16460776 62.44579287 -7.35135749 61.25503677 -8.00793457 57.91992188 C-8.01111694 56.94603516 -8.01429932 55.97214844 -8.01757812 54.96875 C-8.03018677 53.86080078 -8.04279541 52.75285156 -8.05578613 51.61132812 C-8.04768921 50.41958984 -8.03959229 49.22785156 -8.03125 48 C-8.0350769 46.77216797 -8.03890381 45.54433594 -8.04284668 44.27929688 C-8.04556842 41.68358541 -8.03818911 39.08784664 -8.02148438 36.4921875 C-8.00008075 32.51500401 -8.02127963 28.53962718 -8.046875 24.5625 C-8.04423177 22.04166267 -8.03910691 19.52082647 -8.03125 17 C-8.03934692 15.80826172 -8.04744385 14.61652344 -8.05578613 13.38867188 C-8.04317749 12.28072266 -8.03056885 11.17277344 -8.01757812 10.03125 C-8.01439575 9.05736328 -8.01121338 8.08347656 -8.00793457 7.08007812 C-7.07215758 2.32675381 -4.6412659 0.66303799 0 0 Z " fill="#FDFEFF" transform="translate(483.5,216.5)"/>
<path d="M0 0 C4.07207926 0.65444131 5.00420559 1.37182211 7.5 4.5625 C8.00120544 7.18727112 8.00120544 7.18727112 8.00170898 10.20141602 C8.01108994 11.33261368 8.02047089 12.46381134 8.03013611 13.62928772 C8.01890213 14.84603683 8.00766815 16.06278595 7.99609375 17.31640625 C7.99754898 18.568806 7.99900421 19.82120575 8.00050354 21.11155701 C7.99884337 23.75909307 7.98935408 26.40519264 7.96655273 29.05249023 C7.93813821 32.44451205 7.94091453 35.83563442 7.95364285 39.22772312 C7.96227039 42.46567556 7.94715627 45.70348202 7.93359375 48.94140625 C7.93652939 50.1601796 7.93946503 51.37895294 7.94248962 52.63465881 C7.92346336 54.32672707 7.92346336 54.32672707 7.90405273 56.05297852 C7.89864975 57.04685074 7.89324677 58.04072296 7.88768005 59.06471252 C7.44013985 61.94817351 6.81814128 62.8476052 4.5 64.5625 C1.79651254 65.11845912 -0.7789747 64.99422844 -3.5 64.5625 C-5.67476401 63.01911909 -6.31832637 61.92584727 -7.5 59.5625 C-7.61078965 57.86350705 -7.6591682 56.16027164 -7.67700195 54.45776367 C-7.68983719 53.39293259 -7.70267242 52.3281015 -7.71589661 51.23100281 C-7.72328354 50.07582657 -7.73067047 48.92065033 -7.73828125 47.73046875 C-7.746353 46.54657059 -7.75442474 45.36267242 -7.76274109 44.14289856 C-7.77659064 41.63361073 -7.78730888 39.12430399 -7.79516602 36.61499023 C-7.81238264 32.77616716 -7.85626318 28.93820418 -7.90039062 25.09960938 C-7.91051688 22.66406885 -7.91903319 20.22852098 -7.92578125 17.79296875 C-7.94328934 16.6438652 -7.96079742 15.49476166 -7.97883606 14.31083679 C-7.9572362 6.37922697 -7.9572362 6.37922697 -5.69213867 2.33325195 C-3.5 0.5625 -3.5 0.5625 0 0 Z " fill="#FBFDFF" transform="translate(342.5,217.4375)"/>
<path d="M0 0 C3.76233095 2.68836908 6.79711139 5.49616689 8.62109375 9.828125 C8.62109375 11.148125 8.62109375 12.468125 8.62109375 13.828125 C-2.92890625 13.828125 -14.47890625 13.828125 -26.37890625 13.828125 C-25.43351412 8.15577224 -24.53664761 5.49863104 -20.37890625 1.828125 C-14.29798385 -1.82042844 -6.58707326 -3.24486367 0 0 Z " fill="#0D81FE" transform="translate(217.37890625,229.171875)"/>
<path d="M0 0 C3.0625 1.9375 3.0625 1.9375 5 5 C5.8113614 9.35614419 5.48250338 12.86611706 3.75 16.9375 C1.82364453 19.20784752 0.86911204 20.20302443 -2 21 C-6.00022687 20.85713475 -8.24332729 20.61728563 -11.375 18.0625 C-14.21184363 14.46189078 -14.4117359 11.7580688 -14.33203125 7.265625 C-14 5 -14 5 -12.0625 1.9375 C-7.94141507 -0.669717 -4.75058323 -1.03945854 0 0 Z " fill="#F9FCFF" transform="translate(293,239)"/>
<path d="M0 0 C2.58631378 3.1280829 4.02774215 6.19266453 5.48046875 9.97265625 C5.92197266 11.11927734 6.36347656 12.26589844 6.81835938 13.44726562 C7.27017578 14.64029297 7.72199219 15.83332031 8.1875 17.0625 C8.65091797 18.25939453 9.11433594 19.45628906 9.59179688 20.68945312 C13 29.60900681 13 29.60900681 13 33 C11.35 33 9.7 33 8 33 C6.8278551 30.04380781 5.66322524 27.08471211 4.5 24.125 C4.16613281 23.28324219 3.83226562 22.44148438 3.48828125 21.57421875 C3.01455078 20.36572266 3.01455078 20.36572266 2.53125 19.1328125 C2.23798828 18.38918457 1.94472656 17.64555664 1.64257812 16.87939453 C1 15 1 15 1 13 C0.34 13 -0.32 13 -1 13 C-1.17015625 13.60585937 -1.3403125 14.21171875 -1.515625 14.8359375 C-3.31566942 21.05949532 -5.49618433 27.02642961 -8 33 C-9.32 33 -10.64 33 -12 33 C-11.3227011 28.8856619 -10.03379361 25.25748046 -8.49609375 21.38671875 C-8.2533522 20.77230423 -8.01061066 20.15788971 -7.76051331 19.52485657 C-6.9901095 17.57748441 -6.21390549 15.63248603 -5.4375 13.6875 C-4.91172353 12.36148105 -4.38632887 11.03531064 -3.86132812 9.70898438 C-2.5786321 6.47089192 -1.29072651 3.23490115 0 0 Z " fill="#1284FE" transform="translate(54,219)"/>
<path d="M0 0 C0.66 0 1.32 0 2 0 C3.01085436 2.39175361 4.00879203 4.78761585 5 7.1875 C5.28617188 7.86103516 5.57234375 8.53457031 5.8671875 9.22851562 C7.49645291 13.20469908 8 15.59030287 8 20 C3.05 20 -1.9 20 -7 20 C-6.33533318 16.67666588 -5.82159397 14.24432568 -4.58984375 11.23046875 C-4.32236328 10.56982422 -4.05488281 9.90917969 -3.77929688 9.22851562 C-3.50150391 8.55498047 -3.22371094 7.88144531 -2.9375 7.1875 C-2.51500977 6.14819336 -2.51500977 6.14819336 -2.08398438 5.08789062 C-1.39325027 3.39032376 -0.69716272 1.69493688 0 0 Z " fill="#F5F9FE" transform="translate(53,232)"/>
<path d="M0 0 C3.4375 1.875 3.4375 1.875 6 4 C6 4.66 6 5.32 6 6 C-0.27 6 -6.54 6 -13 6 C-12 3 -12 3 -9.875 1.3125 C-6.24183597 -0.34611836 -3.96243347 -0.48661464 0 0 Z " fill="#F5FAFF" transform="translate(212,233)"/>
</svg>
