<svg width="24" height="24" viewBox="0 0 24 24" fill="none" xmlns="http://www.w3.org/2000/svg">
<path d="M9 15C9 15.5523 8.55228 16 8 16C7.44772 16 7 15.5523 7 15C7 14.4477 7.44772 14 8 14C8.55228 14 9 14.4477 9 15Z" fill="#353A40"/>
<path d="M9 11C9 11.5523 8.55228 12 8 12C7.44772 12 7 11.5523 7 11C7 10.4477 7.44772 10 8 10C8.55228 10 9 10.4477 9 11Z" fill="#353A40"/>
<path d="M13 15C13 15.5523 12.5523 16 12 16C11.4477 16 11 15.5523 11 15C11 14.4477 11.4477 14 12 14C12.5523 14 13 14.4477 13 15Z" fill="#353A40"/>
<path d="M13 11C13 11.5523 12.5523 12 12 12C11.4477 12 11 11.5523 11 11C11 10.4477 11.4477 10 12 10C12.5523 10 13 10.4477 13 11Z" fill="#353A40"/>
<path d="M17 11C17 11.5523 16.5523 12 16 12C15.4477 12 15 11.5523 15 11C15 10.4477 15.4477 10 16 10C16.5523 10 17 10.4477 17 11Z" fill="#353A40"/>
<path fill-rule="evenodd" clip-rule="evenodd" d="M12 4.75C9.88333 4.75 6.99144 4.93342 5.1865 5.06548C4.59249 5.10894 4.12445 5.57311 4.07621 6.16562C3.93699 7.87574 3.75 10.5417 3.75 12.5C3.75 14.4583 3.93699 17.1243 4.07621 18.8344C4.12445 19.4269 4.59249 19.8911 5.1865 19.9345C6.99145 20.0666 9.88333 20.25 12 20.25C14.1167 20.25 17.0086 20.0666 18.8135 19.9345C19.4075 19.8911 19.8756 19.4269 19.9238 18.8344C20.063 17.1243 20.25 14.4583 20.25 12.5C20.25 10.5417 20.063 7.87574 19.9238 6.16562C19.8756 5.57312 19.4075 5.10894 18.8135 5.06548C17.0086 4.93342 14.1167 4.75 12 4.75ZM5.07704 3.56948C6.8828 3.43736 9.82315 3.25 12 3.25C14.1769 3.25 17.1172 3.43736 18.923 3.56948C20.2533 3.66682 21.3105 4.71328 21.4188 6.04391C21.5582 7.75539 21.75 10.475 21.75 12.5C21.75 14.525 21.5582 17.2446 21.4188 18.9561C21.3105 20.2867 20.2533 21.3332 18.923 21.4305C17.1172 21.5626 14.1769 21.75 12 21.75C9.82315 21.75 6.8828 21.5626 5.07704 21.4305C3.7467 21.3332 2.68948 20.2867 2.58116 18.9561C2.44183 17.2446 2.25 14.525 2.25 12.5C2.25 10.475 2.44183 7.75539 2.58116 6.04391C2.68948 4.71328 3.7467 3.66682 5.07704 3.56948Z" fill="#353A40"/>
<path fill-rule="evenodd" clip-rule="evenodd" d="M9 2.25C9.41421 2.25 9.75 2.58579 9.75 3V5.5C9.75 5.91421 9.41421 6.25 9 6.25C8.58579 6.25 8.25 5.91421 8.25 5.5V3C8.25 2.58579 8.58579 2.25 9 2.25Z" fill="#353A40"/>
<path fill-rule="evenodd" clip-rule="evenodd" d="M15 2.25C15.4142 2.25 15.75 2.58579 15.75 3L15.75 5.5C15.75 5.91421 15.4142 6.25 15 6.25C14.5858 6.25 14.25 5.91421 14.25 5.5L14.25 3C14.25 2.58579 14.5858 2.25 15 2.25Z" fill="#353A40"/>
</svg>
